<svg width="28" height="27" viewBox="0 0 28 27" fill="none" xmlns="http://www.w3.org/2000/svg">
<circle cx="14" cy="13.5" r="13.5" fill="#192873"/>
<path d="M10.85 6H17.15C19.55 6 21.5 7.95 21.5 10.35V16.65C21.5 17.8037 21.0417 18.9101 20.2259 19.7259C19.4101 20.5417 18.3037 21 17.15 21H10.85C8.45 21 6.5 19.05 6.5 16.65V10.35C6.5 9.19631 6.9583 8.08987 7.77409 7.27409C8.58987 6.4583 9.69631 6 10.85 6M10.7 7.5C9.98392 7.5 9.29716 7.78446 8.79081 8.29081C8.28446 8.79716 8 9.48392 8 10.2V16.8C8 18.2925 9.2075 19.5 10.7 19.5H17.3C18.0161 19.5 18.7028 19.2155 19.2092 18.7092C19.7155 18.2028 20 17.5161 20 16.8V10.2C20 8.7075 18.7925 7.5 17.3 7.5H10.7ZM17.9375 8.625C18.1861 8.625 18.4246 8.72377 18.6004 8.89959C18.7762 9.0754 18.875 9.31386 18.875 9.5625C18.875 9.81114 18.7762 10.0496 18.6004 10.2254C18.4246 10.4012 18.1861 10.5 17.9375 10.5C17.6889 10.5 17.4504 10.4012 17.2746 10.2254C17.0988 10.0496 17 9.81114 17 9.5625C17 9.31386 17.0988 9.0754 17.2746 8.89959C17.4504 8.72377 17.6889 8.625 17.9375 8.625ZM14 9.75C14.9946 9.75 15.9484 10.1451 16.6517 10.8483C17.3549 11.5516 17.75 12.5054 17.75 13.5C17.75 14.4946 17.3549 15.4484 16.6517 16.1517C15.9484 16.8549 14.9946 17.25 14 17.25C13.0054 17.25 12.0516 16.8549 11.3483 16.1517C10.6451 15.4484 10.25 14.4946 10.25 13.5C10.25 12.5054 10.6451 11.5516 11.3483 10.8483C12.0516 10.1451 13.0054 9.75 14 9.75M14 11.25C13.4033 11.25 12.831 11.4871 12.409 11.909C11.9871 12.331 11.75 12.9033 11.75 13.5C11.75 14.0967 11.9871 14.669 12.409 15.091C12.831 15.5129 13.4033 15.75 14 15.75C14.5967 15.75 15.169 15.5129 15.591 15.091C16.0129 14.669 16.25 14.0967 16.25 13.5C16.25 12.9033 16.0129 12.331 15.591 11.909C15.169 11.4871 14.5967 11.25 14 11.25Z" fill="white"/>
</svg>
