<svg width="28" height="27" viewBox="0 0 28 27" fill="none" xmlns="http://www.w3.org/2000/svg">
<circle cx="14" cy="13.5" r="13.5" fill="#192873"/>
<path d="M10.4381 7.44509C10.4379 7.82816 10.2829 8.19546 10.0073 8.46619C9.73166 8.73693 9.35793 8.88892 8.96831 8.88873C8.5787 8.88854 8.20512 8.73618 7.92975 8.46517C7.65439 8.19417 7.49981 7.82671 7.5 7.44364C7.50019 7.06057 7.65516 6.69327 7.93079 6.42253C8.20643 6.1518 8.58016 5.99981 8.96978 6C9.35939 6.00019 9.73297 6.15255 10.0083 6.42356C10.2837 6.69456 10.4383 7.06202 10.4381 7.44509V7.44509ZM10.4822 9.95828H7.54407V19H10.4822V9.95828ZM15.1243 9.95828H12.2009V19H15.095V14.2553C15.095 11.6121 18.5986 11.3665 18.5986 14.2553V19H21.5V13.2731C21.5 8.81723 16.3143 8.98333 15.095 11.1715L15.1243 9.95828V9.95828Z" fill="white"/>
</svg>
