<svg width="28" height="27" viewBox="0 0 28 27" fill="none" xmlns="http://www.w3.org/2000/svg">
<circle cx="14" cy="13.5" r="13.5" fill="#192873"/>
<path d="M17.8138 8.35C17.8138 8.35 18.2366 8.76667 17.8138 8.35C17.247 7.69969 16.9347 6.86453 16.9349 6H14.3731V16.3333C14.3533 16.8925 14.1185 17.4222 13.7179 17.8108C13.3174 18.1994 12.7825 18.4166 12.2258 18.4167C11.0485 18.4167 10.0702 17.45 10.0702 16.25C10.0702 14.8167 11.4464 13.7417 12.8642 14.1833V11.55C10.0038 11.1667 7.5 13.4 7.5 16.25C7.5 19.025 9.78827 21 12.2175 21C14.8208 21 16.9349 18.875 16.9349 16.25V11.0083C17.9738 11.7582 19.221 12.1605 20.5 12.1583V9.58333C20.5 9.58333 18.9413 9.65833 17.8138 8.35Z" fill="white"/>
</svg>
