<svg width="28" height="27" viewBox="0 0 28 27" fill="none" xmlns="http://www.w3.org/2000/svg">
<circle cx="14" cy="13.5" r="13.5" fill="#192873"/>
<path d="M12.5 16.1429L16.3925 14L12.5 11.8571V16.1429ZM21.17 10.55C21.2675 10.8857 21.335 11.3357 21.38 11.9071C21.4325 12.4786 21.455 12.9714 21.455 13.4L21.5 14C21.5 15.5643 21.38 16.7143 21.17 17.45C20.9825 18.0929 20.5475 18.5071 19.8725 18.6857C19.52 18.7786 18.875 18.8429 17.885 18.8857C16.91 18.9357 16.0175 18.9571 15.1925 18.9571L14 19C10.8575 19 8.9 18.8857 8.1275 18.6857C7.4525 18.5071 7.0175 18.0929 6.83 17.45C6.7325 17.1143 6.665 16.6643 6.62 16.0929C6.5675 15.5214 6.545 15.0286 6.545 14.6L6.5 14C6.5 12.4357 6.62 11.2857 6.83 10.55C7.0175 9.90714 7.4525 9.49286 8.1275 9.31429C8.48 9.22143 9.125 9.15714 10.115 9.11429C11.09 9.06429 11.9825 9.04286 12.8075 9.04286L14 9C17.1425 9 19.1 9.11429 19.8725 9.31429C20.5475 9.49286 20.9825 9.90714 21.17 10.55V10.55Z" fill="white"/>
</svg>
