<svg width="15" height="14" viewBox="0 0 15 14" xmlns="http://www.w3.org/2000/svg" fill="inherit">
<path d="M14.5 5.04C14.5 5.26278 14.4115 5.47644 14.254 5.63397C14.0964 5.7915 13.8828 5.88 13.66 5.88C13.4372 5.88 13.2236 5.7915 13.066 5.63397C12.9085 5.47644 12.82 5.26278 12.82 5.04V2.87L9.215 6.475C9.13679 6.55294 9.04399 6.61469 8.94189 6.65673C8.83979 6.69877 8.73041 6.72027 8.62 6.72C8.50936 6.72186 8.39951 6.70108 8.2972 6.65895C8.19488 6.61682 8.10225 6.55422 8.025 6.475C7.94669 6.39696 7.88455 6.30423 7.84216 6.20213C7.79976 6.10002 7.77794 5.99056 7.77794 5.88C7.77794 5.76944 7.79976 5.65998 7.84216 5.55787C7.88455 5.45577 7.94669 5.36304 8.025 5.285L11.63 1.68H9.46C9.23722 1.68 9.02356 1.5915 8.86603 1.43397C8.7085 1.27644 8.62 1.06278 8.62 0.84C8.62 0.617218 8.7085 0.403561 8.86603 0.24603C9.02356 0.0884998 9.23722 0 9.46 0H13.66C13.8828 0 14.0964 0.0884998 14.254 0.24603C14.4115 0.403561 14.5 0.617218 14.5 0.84V5.04ZM11.42 7.28C11.1972 7.28 10.9836 7.3685 10.826 7.52603C10.6685 7.68356 10.58 7.89722 10.58 8.12V12.32H2.18V3.92H6.38C6.60278 3.92 6.81644 3.8315 6.97397 3.67397C7.1315 3.51644 7.22 3.30278 7.22 3.08C7.22 2.85722 7.1315 2.64356 6.97397 2.48603C6.81644 2.3285 6.60278 2.24 6.38 2.24H1.9C1.52926 2.24184 1.17424 2.38993 0.912083 2.65208C0.64993 2.91424 0.50184 3.26926 0.5 3.64V12.6C0.50184 12.9707 0.64993 13.3258 0.912083 13.5879C1.17424 13.8501 1.52926 13.9982 1.9 14H10.86C11.2307 13.9982 11.5858 13.8501 11.8479 13.5879C12.1101 13.3258 12.2582 12.9707 12.26 12.6V8.12C12.26 7.89722 12.1715 7.68356 12.014 7.52603C11.8564 7.3685 11.6428 7.28 11.42 7.28Z" fill="inherit"/>
</svg>
