<svg width="74" height="20" viewBox="0 0 74 20" fill="none" xmlns="http://www.w3.org/2000/svg">
<rect width="74" height="20" rx="10" fill="#FFD0B6"/>
<circle cx="10" cy="10" r="5" fill="#FF7628"/>
<path d="M21.0568 14.5V5.77273H24.0057C24.6903 5.77273 25.25 5.89631 25.6847 6.14347C26.1222 6.38778 26.446 6.71875 26.6562 7.13636C26.8665 7.55398 26.9716 8.01989 26.9716 8.53409C26.9716 9.0483 26.8665 9.51562 26.6562 9.93608C26.4489 10.3565 26.1278 10.6918 25.6932 10.9418C25.2585 11.1889 24.7017 11.3125 24.0227 11.3125H21.9091V10.375H23.9886C24.4574 10.375 24.8338 10.294 25.1179 10.1321C25.402 9.97017 25.608 9.75142 25.7358 9.47585C25.8665 9.19744 25.9318 8.88352 25.9318 8.53409C25.9318 8.18466 25.8665 7.87216 25.7358 7.59659C25.608 7.32102 25.4006 7.10511 25.1136 6.94886C24.8267 6.78977 24.446 6.71023 23.9716 6.71023H22.1136V14.5H21.0568ZM31.0316 14.6364C30.401 14.6364 29.8569 14.4972 29.3995 14.2188C28.945 13.9375 28.5941 13.5455 28.347 13.0426C28.1027 12.5369 27.9805 11.9489 27.9805 11.2784C27.9805 10.608 28.1027 10.017 28.347 9.50568C28.5941 8.99148 28.9379 8.59091 29.3782 8.30398C29.8214 8.0142 30.3385 7.86932 30.9294 7.86932C31.2703 7.86932 31.6069 7.92614 31.9393 8.03977C32.2717 8.15341 32.5743 8.33807 32.847 8.59375C33.1197 8.84659 33.337 9.18182 33.499 9.59943C33.6609 10.017 33.7419 10.5312 33.7419 11.142V11.5682H28.6964V10.6989H32.7191C32.7191 10.3295 32.6453 10 32.4976 9.71023C32.3527 9.42045 32.1453 9.19176 31.8754 9.02415C31.6084 8.85653 31.293 8.77273 30.9294 8.77273C30.5288 8.77273 30.1822 8.87216 29.8896 9.07102C29.5998 9.26705 29.3768 9.52273 29.2206 9.83807C29.0643 10.1534 28.9862 10.4915 28.9862 10.8523V11.4318C28.9862 11.9261 29.0714 12.3452 29.2419 12.6889C29.4152 13.0298 29.6552 13.2898 29.962 13.4688C30.2689 13.6449 30.6254 13.733 31.0316 13.733C31.2959 13.733 31.5345 13.696 31.7476 13.6222C31.9635 13.5455 32.1495 13.4318 32.3058 13.2812C32.462 13.1278 32.5828 12.9375 32.668 12.7102L33.6396 12.983C33.5373 13.3125 33.3655 13.6023 33.124 13.8523C32.8825 14.0994 32.5842 14.2926 32.2291 14.4318C31.874 14.5682 31.4748 14.6364 31.0316 14.6364ZM36.0974 10.5625V14.5H35.0917V7.95455H36.0633V8.97727H36.1485C36.3019 8.64489 36.5349 8.37784 36.8474 8.17614C37.1599 7.97159 37.5633 7.86932 38.0576 7.86932C38.5008 7.86932 38.8886 7.96023 39.221 8.14205C39.5534 8.32102 39.8119 8.59375 39.9965 8.96023C40.1812 9.32386 40.2735 9.78409 40.2735 10.3409V14.5H39.2678V10.4091C39.2678 9.89489 39.1343 9.49432 38.8673 9.20739C38.6002 8.91761 38.2338 8.77273 37.7678 8.77273C37.4468 8.77273 37.1599 8.84233 36.907 8.98153C36.657 9.12074 36.4596 9.32386 36.3147 9.59091C36.1698 9.85795 36.0974 10.1818 36.0974 10.5625ZM44.4028 14.6364C43.8574 14.6364 43.3758 14.4986 42.9582 14.223C42.5406 13.9446 42.2139 13.5526 41.9781 13.0469C41.7423 12.5384 41.6244 11.9375 41.6244 11.2443C41.6244 10.5568 41.7423 9.96023 41.9781 9.45455C42.2139 8.94886 42.542 8.55824 42.9625 8.28267C43.3829 8.0071 43.8687 7.86932 44.4199 7.86932C44.846 7.86932 45.1827 7.94034 45.4298 8.08239C45.6798 8.22159 45.8702 8.38068 46.0008 8.55966C46.1344 8.7358 46.2381 8.88068 46.3119 8.99432H46.3971V5.77273H47.4028V14.5H46.4312V13.4943H46.3119C46.2381 13.6136 46.1329 13.7642 45.9966 13.946C45.8602 14.125 45.6656 14.2855 45.4128 14.4276C45.1599 14.5668 44.8233 14.6364 44.4028 14.6364ZM44.5392 13.733C44.9426 13.733 45.2835 13.6278 45.5619 13.4176C45.8403 13.2045 46.052 12.9105 46.1969 12.5355C46.3417 12.1577 46.4142 11.7216 46.4142 11.2273C46.4142 10.7386 46.3432 10.3111 46.2011 9.9446C46.0591 9.57528 45.8488 9.28835 45.5704 9.08381C45.292 8.87642 44.9483 8.77273 44.5392 8.77273C44.1131 8.77273 43.7579 8.8821 43.4738 9.10085C43.1926 9.31676 42.981 9.6108 42.8389 9.98295C42.6997 10.3523 42.6301 10.767 42.6301 11.2273C42.6301 11.6932 42.7011 12.1165 42.8432 12.4972C42.9881 12.875 43.2011 13.1761 43.4824 13.4006C43.7665 13.6222 44.1187 13.733 44.5392 13.733ZM49.2044 14.5V7.95455H50.21V14.5H49.2044ZM49.7157 6.86364C49.5197 6.86364 49.3507 6.79688 49.2086 6.66335C49.0694 6.52983 48.9998 6.36932 48.9998 6.18182C48.9998 5.99432 49.0694 5.83381 49.2086 5.70028C49.3507 5.56676 49.5197 5.5 49.7157 5.5C49.9117 5.5 50.0794 5.56676 50.2186 5.70028C50.3606 5.83381 50.4316 5.99432 50.4316 6.18182C50.4316 6.36932 50.3606 6.52983 50.2186 6.66335C50.0794 6.79688 49.9117 6.86364 49.7157 6.86364ZM52.8777 10.5625V14.5H51.872V7.95455H52.8436V8.97727H52.9288C53.0822 8.64489 53.3152 8.37784 53.6277 8.17614C53.9402 7.97159 54.3436 7.86932 54.8379 7.86932C55.2811 7.86932 55.6689 7.96023 56.0013 8.14205C56.3337 8.32102 56.5922 8.59375 56.7768 8.96023C56.9615 9.32386 57.0538 9.78409 57.0538 10.3409V14.5H56.0482V10.4091C56.0482 9.89489 55.9146 9.49432 55.6476 9.20739C55.3805 8.91761 55.0141 8.77273 54.5482 8.77273C54.2271 8.77273 53.9402 8.84233 53.6874 8.98153C53.4374 9.12074 53.2399 9.32386 53.095 9.59091C52.9501 9.85795 52.8777 10.1818 52.8777 10.5625ZM61.3536 17.0909C60.8678 17.0909 60.4502 17.0284 60.1008 16.9034C59.7513 16.7812 59.4601 16.6193 59.2272 16.4176C58.9971 16.2188 58.8138 16.0057 58.6775 15.7784L59.4786 15.2159C59.5695 15.3352 59.6846 15.4716 59.8238 15.625C59.963 15.7812 60.1533 15.9162 60.3948 16.0298C60.6391 16.1463 60.9587 16.2045 61.3536 16.2045C61.882 16.2045 62.3181 16.0767 62.6618 15.821C63.0056 15.5653 63.1775 15.1648 63.1775 14.6193V13.2898H63.0922C63.0184 13.4091 62.9133 13.5568 62.7769 13.733C62.6434 13.9062 62.4502 14.0611 62.1973 14.1974C61.9473 14.331 61.6093 14.3977 61.1831 14.3977C60.6547 14.3977 60.1803 14.2727 59.7598 14.0227C59.3422 13.7727 59.0113 13.4091 58.7669 12.9318C58.5255 12.4545 58.4047 11.875 58.4047 11.1932C58.4047 10.5227 58.5226 9.93892 58.7584 9.44176C58.9942 8.94176 59.3223 8.5554 59.7428 8.28267C60.1633 8.0071 60.649 7.86932 61.2002 7.86932C61.6263 7.86932 61.9644 7.94034 62.2144 8.08239C62.4672 8.22159 62.6604 8.38068 62.7939 8.55966C62.9303 8.7358 63.0354 8.88068 63.1093 8.99432H63.2115V7.95455H64.1831V14.6875C64.1831 15.25 64.0553 15.7074 63.7996 16.0597C63.5468 16.4148 63.2059 16.6747 62.7769 16.8395C62.3508 17.0071 61.8763 17.0909 61.3536 17.0909ZM61.3195 13.4943C61.7229 13.4943 62.0638 13.402 62.3422 13.2173C62.6206 13.0327 62.8323 12.767 62.9772 12.4205C63.1221 12.0739 63.1945 11.6591 63.1945 11.1761C63.1945 10.7045 63.1235 10.2884 62.9814 9.92756C62.8394 9.56676 62.6292 9.28409 62.3508 9.07955C62.0723 8.875 61.7286 8.77273 61.3195 8.77273C60.8934 8.77273 60.5383 8.88068 60.2542 9.09659C59.9729 9.3125 59.7613 9.60227 59.6192 9.96591C59.48 10.3295 59.4104 10.733 59.4104 11.1761C59.4104 11.6307 59.4814 12.0327 59.6235 12.3821C59.7684 12.7287 59.9814 13.0014 60.2627 13.2003C60.5468 13.3963 60.899 13.4943 61.3195 13.4943Z" fill="#333333"/>
</svg>
