<svg width="82" height="20" viewBox="0 0 82 20" fill="none" xmlns="http://www.w3.org/2000/svg">
<rect width="82" height="20" rx="10" fill="#C8FFDC"/>
<circle cx="10" cy="10" r="5" fill="#79BD92"/>
<path d="M21.4148 14.5H20.3068L23.5114 5.77273H24.6023L27.8068 14.5H26.6989L24.0909 7.15341H24.0227L21.4148 14.5ZM21.8239 11.0909H26.2898V12.0284H21.8239V11.0909ZM28.8498 16.9545V7.95455H29.8214V8.99432H29.9407C30.0146 8.88068 30.1169 8.7358 30.2476 8.55966C30.3811 8.38068 30.5714 8.22159 30.8186 8.08239C31.0686 7.94034 31.4066 7.86932 31.8328 7.86932C32.3839 7.86932 32.8697 8.0071 33.2902 8.28267C33.7106 8.55824 34.0388 8.94886 34.2745 9.45455C34.5103 9.96023 34.6282 10.5568 34.6282 11.2443C34.6282 11.9375 34.5103 12.5384 34.2745 13.0469C34.0388 13.5526 33.712 13.9446 33.2944 14.223C32.8768 14.4986 32.3953 14.6364 31.8498 14.6364C31.4294 14.6364 31.0927 14.5668 30.8399 14.4276C30.587 14.2855 30.3924 14.125 30.2561 13.946C30.1197 13.7642 30.0146 13.6136 29.9407 13.4943H29.8555V16.9545H28.8498ZM29.8385 11.2273C29.8385 11.7216 29.9109 12.1577 30.0558 12.5355C30.2007 12.9105 30.4123 13.2045 30.6907 13.4176C30.9691 13.6278 31.3101 13.733 31.7135 13.733C32.1339 13.733 32.4848 13.6222 32.766 13.4006C33.0501 13.1761 33.2632 12.875 33.4052 12.4972C33.5501 12.1165 33.6226 11.6932 33.6226 11.2273C33.6226 10.767 33.5515 10.3523 33.4095 9.98295C33.2703 9.6108 33.0586 9.31676 32.7745 9.10085C32.4933 8.8821 32.1396 8.77273 31.7135 8.77273C31.3044 8.77273 30.9606 8.87642 30.6822 9.08381C30.4038 9.28835 30.1936 9.57528 30.0515 9.9446C29.9095 10.3111 29.8385 10.7386 29.8385 11.2273ZM35.9823 16.9545V7.95455H36.9539V8.99432H37.0732C37.1471 8.88068 37.2494 8.7358 37.3801 8.55966C37.5136 8.38068 37.7039 8.22159 37.9511 8.08239C38.2011 7.94034 38.5391 7.86932 38.9653 7.86932C39.5164 7.86932 40.0022 8.0071 40.4227 8.28267C40.8431 8.55824 41.1713 8.94886 41.407 9.45455C41.6428 9.96023 41.7607 10.5568 41.7607 11.2443C41.7607 11.9375 41.6428 12.5384 41.407 13.0469C41.1713 13.5526 40.8445 13.9446 40.4269 14.223C40.0093 14.4986 39.5278 14.6364 38.9823 14.6364C38.5619 14.6364 38.2252 14.5668 37.9724 14.4276C37.7195 14.2855 37.5249 14.125 37.3886 13.946C37.2522 13.7642 37.1471 13.6136 37.0732 13.4943H36.988V16.9545H35.9823ZM36.971 11.2273C36.971 11.7216 37.0434 12.1577 37.1883 12.5355C37.3332 12.9105 37.5448 13.2045 37.8232 13.4176C38.1016 13.6278 38.4426 13.733 38.846 13.733C39.2664 13.733 39.6173 13.6222 39.8985 13.4006C40.1826 13.1761 40.3957 12.875 40.5377 12.4972C40.6826 12.1165 40.7551 11.6932 40.7551 11.2273C40.7551 10.767 40.684 10.3523 40.542 9.98295C40.4028 9.6108 40.1911 9.31676 39.907 9.10085C39.6258 8.8821 39.2721 8.77273 38.846 8.77273C38.4369 8.77273 38.0931 8.87642 37.8147 9.08381C37.5363 9.28835 37.3261 9.57528 37.184 9.9446C37.042 10.3111 36.971 10.7386 36.971 11.2273ZM43.1148 14.5V7.95455H44.0864V8.94318H44.1546C44.2739 8.61932 44.4898 8.35653 44.8023 8.15483C45.1148 7.95312 45.4671 7.85227 45.8591 7.85227C45.933 7.85227 46.0253 7.85369 46.1361 7.85653C46.2469 7.85937 46.3307 7.86364 46.3876 7.86932V8.89205C46.3535 8.88352 46.2753 8.87074 46.1532 8.85369C46.0339 8.83381 45.9074 8.82386 45.7739 8.82386C45.4557 8.82386 45.1716 8.89062 44.9216 9.02415C44.6745 9.15483 44.4785 9.33665 44.3336 9.5696C44.1915 9.79972 44.1205 10.0625 44.1205 10.358V14.5H43.1148ZM49.8595 14.6364C49.2686 14.6364 48.7502 14.4957 48.3041 14.2145C47.861 13.9332 47.5144 13.5398 47.2644 13.0341C47.0172 12.5284 46.8936 11.9375 46.8936 11.2614C46.8936 10.5795 47.0172 9.98437 47.2644 9.47585C47.5144 8.96733 47.861 8.57244 48.3041 8.29119C48.7502 8.00994 49.2686 7.86932 49.8595 7.86932C50.4505 7.86932 50.9675 8.00994 51.4107 8.29119C51.8567 8.57244 52.2033 8.96733 52.4505 9.47585C52.7005 9.98437 52.8255 10.5795 52.8255 11.2614C52.8255 11.9375 52.7005 12.5284 52.4505 13.0341C52.2033 13.5398 51.8567 13.9332 51.4107 14.2145C50.9675 14.4957 50.4505 14.6364 49.8595 14.6364ZM49.8595 13.733C50.3084 13.733 50.6777 13.6179 50.9675 13.3878C51.2573 13.1577 51.4718 12.8551 51.611 12.4801C51.7502 12.1051 51.8198 11.6989 51.8198 11.2614C51.8198 10.8239 51.7502 10.4162 51.611 10.0384C51.4718 9.66051 51.2573 9.35511 50.9675 9.12216C50.6777 8.8892 50.3084 8.77273 49.8595 8.77273C49.4107 8.77273 49.0414 8.8892 48.7516 9.12216C48.4618 9.35511 48.2473 9.66051 48.1081 10.0384C47.9689 10.4162 47.8993 10.8239 47.8993 11.2614C47.8993 11.6989 47.9689 12.1051 48.1081 12.4801C48.2473 12.8551 48.4618 13.1577 48.7516 13.3878C49.0414 13.6179 49.4107 13.733 49.8595 13.733ZM59.2985 7.95455L56.8781 14.5H55.8553L53.4349 7.95455H54.5258L56.3326 13.1705H56.4008L58.2076 7.95455H59.2985ZM62.9559 14.6364C62.3252 14.6364 61.7811 14.4972 61.3238 14.2188C60.8692 13.9375 60.5184 13.5455 60.2712 13.0426C60.0269 12.5369 59.9047 11.9489 59.9047 11.2784C59.9047 10.608 60.0269 10.017 60.2712 9.50568C60.5184 8.99148 60.8621 8.59091 61.3025 8.30398C61.7456 8.0142 62.2627 7.86932 62.8536 7.86932C63.1945 7.86932 63.5311 7.92614 63.8635 8.03977C64.1959 8.15341 64.4985 8.33807 64.7712 8.59375C65.0439 8.84659 65.2613 9.18182 65.4232 9.59943C65.5851 10.017 65.6661 10.5312 65.6661 11.142V11.5682H60.6206V10.6989H64.6434C64.6434 10.3295 64.5695 10 64.4218 9.71023C64.2769 9.42045 64.0695 9.19176 63.7996 9.02415C63.5326 8.85653 63.2172 8.77273 62.8536 8.77273C62.453 8.77273 62.1064 8.87216 61.8138 9.07102C61.524 9.26705 61.301 9.52273 61.1448 9.83807C60.9885 10.1534 60.9104 10.4915 60.9104 10.8523V11.4318C60.9104 11.9261 60.9956 12.3452 61.1661 12.6889C61.3394 13.0298 61.5794 13.2898 61.8863 13.4688C62.1931 13.6449 62.5496 13.733 62.9559 13.733C63.2201 13.733 63.4587 13.696 63.6718 13.6222C63.8877 13.5455 64.0738 13.4318 64.23 13.2812C64.3863 13.1278 64.507 12.9375 64.5922 12.7102L65.5638 12.983C65.4615 13.3125 65.2897 13.6023 65.0482 13.8523C64.8067 14.0994 64.5084 14.2926 64.1533 14.4318C63.7982 14.5682 63.399 14.6364 62.9559 14.6364ZM69.4875 14.6364C68.9421 14.6364 68.4605 14.4986 68.0429 14.223C67.6253 13.9446 67.2986 13.5526 67.0628 13.0469C66.827 12.5384 66.7091 11.9375 66.7091 11.2443C66.7091 10.5568 66.827 9.96023 67.0628 9.45455C67.2986 8.94886 67.6267 8.55824 68.0472 8.28267C68.4676 8.0071 68.9534 7.86932 69.5046 7.86932C69.9307 7.86932 70.2673 7.94034 70.5145 8.08239C70.7645 8.22159 70.9548 8.38068 71.0855 8.55966C71.2191 8.7358 71.3227 8.88068 71.3966 8.99432H71.4818V5.77273H72.4875V14.5H71.5159V13.4943H71.3966C71.3227 13.6136 71.2176 13.7642 71.0813 13.946C70.9449 14.125 70.7503 14.2855 70.4975 14.4276C70.2446 14.5668 69.908 14.6364 69.4875 14.6364ZM69.6239 13.733C70.0273 13.733 70.3682 13.6278 70.6466 13.4176C70.925 13.2045 71.1367 12.9105 71.2816 12.5355C71.4264 12.1577 71.4989 11.7216 71.4989 11.2273C71.4989 10.7386 71.4279 10.3111 71.2858 9.9446C71.1438 9.57528 70.9335 9.28835 70.6551 9.08381C70.3767 8.87642 70.033 8.77273 69.6239 8.77273C69.1977 8.77273 68.8426 8.8821 68.5585 9.10085C68.2773 9.31676 68.0656 9.6108 67.9236 9.98295C67.7844 10.3523 67.7148 10.767 67.7148 11.2273C67.7148 11.6932 67.7858 12.1165 67.9279 12.4972C68.0727 12.875 68.2858 13.1761 68.5671 13.4006C68.8512 13.6222 69.2034 13.733 69.6239 13.733Z" fill="#333333"/>
</svg>
