<svg width="105" height="20" viewBox="0 0 105 20" fill="none" xmlns="http://www.w3.org/2000/svg">
<rect width="105" height="20" rx="10" fill="#FFEFEF"/>
<circle cx="10" cy="10" r="5" fill="#FF3939"/>
<path d="M27.9773 5.77273V14.5H26.9545L22.1989 7.64773H22.1136V14.5H21.0568V5.77273H22.0795L26.8523 12.642H26.9375V5.77273H27.9773ZM32.4347 14.6364C31.8438 14.6364 31.3253 14.4957 30.8793 14.2145C30.4361 13.9332 30.0895 13.5398 29.8395 13.0341C29.5924 12.5284 29.4688 11.9375 29.4688 11.2614C29.4688 10.5795 29.5924 9.98437 29.8395 9.47585C30.0895 8.96733 30.4361 8.57244 30.8793 8.29119C31.3253 8.00994 31.8438 7.86932 32.4347 7.86932C33.0256 7.86932 33.5427 8.00994 33.9858 8.29119C34.4319 8.57244 34.7785 8.96733 35.0256 9.47585C35.2756 9.98437 35.4006 10.5795 35.4006 11.2614C35.4006 11.9375 35.2756 12.5284 35.0256 13.0341C34.7785 13.5398 34.4319 13.9332 33.9858 14.2145C33.5427 14.4957 33.0256 14.6364 32.4347 14.6364ZM32.4347 13.733C32.8836 13.733 33.2529 13.6179 33.5427 13.3878C33.8324 13.1577 34.0469 12.8551 34.1861 12.4801C34.3253 12.1051 34.3949 11.6989 34.3949 11.2614C34.3949 10.8239 34.3253 10.4162 34.1861 10.0384C34.0469 9.66051 33.8324 9.35511 33.5427 9.12216C33.2529 8.8892 32.8836 8.77273 32.4347 8.77273C31.9858 8.77273 31.6165 8.8892 31.3267 9.12216C31.037 9.35511 30.8225 9.66051 30.6833 10.0384C30.5441 10.4162 30.4745 10.8239 30.4745 11.2614C30.4745 11.6989 30.5441 12.1051 30.6833 12.4801C30.8225 12.8551 31.037 13.1577 31.3267 13.3878C31.6165 13.6179 31.9858 13.733 32.4347 13.733ZM39.6024 7.95455V8.80682H36.2103V7.95455H39.6024ZM37.1989 6.38636H38.2046V12.625C38.2046 12.9091 38.2458 13.1222 38.3282 13.2642C38.4134 13.4034 38.5214 13.4972 38.6521 13.5455C38.7856 13.5909 38.9262 13.6136 39.0739 13.6136C39.1847 13.6136 39.2757 13.608 39.3467 13.5966C39.4177 13.5824 39.4745 13.571 39.5171 13.5625L39.7217 14.4659C39.6535 14.4915 39.5583 14.517 39.4362 14.5426C39.314 14.571 39.1592 14.5852 38.9717 14.5852C38.6876 14.5852 38.4092 14.5241 38.1364 14.402C37.8666 14.2798 37.6421 14.0938 37.4632 13.8438C37.287 13.5938 37.1989 13.2784 37.1989 12.8977V6.38636ZM44.6245 14.5H43.5165L46.7211 5.77273H47.812L51.0165 14.5H49.9086L47.3006 7.15341H47.2324L44.6245 14.5ZM45.0336 11.0909H49.4995V12.0284H45.0336V11.0909ZM52.0595 16.9545V7.95455H53.0311V8.99432H53.1504C53.2243 8.88068 53.3266 8.7358 53.4572 8.55966C53.5908 8.38068 53.7811 8.22159 54.0283 8.08239C54.2783 7.94034 54.6163 7.86932 55.0425 7.86932C55.5936 7.86932 56.0794 8.0071 56.4999 8.28267C56.9203 8.55824 57.2484 8.94886 57.4842 9.45455C57.72 9.96023 57.8379 10.5568 57.8379 11.2443C57.8379 11.9375 57.72 12.5384 57.4842 13.0469C57.2484 13.5526 56.9217 13.9446 56.5041 14.223C56.0865 14.4986 55.605 14.6364 55.0595 14.6364C54.6391 14.6364 54.3024 14.5668 54.0496 14.4276C53.7967 14.2855 53.6021 14.125 53.4658 13.946C53.3294 13.7642 53.2243 13.6136 53.1504 13.4943H53.0652V16.9545H52.0595ZM53.0482 11.2273C53.0482 11.7216 53.1206 12.1577 53.2655 12.5355C53.4104 12.9105 53.622 13.2045 53.9004 13.4176C54.1788 13.6278 54.5197 13.733 54.9232 13.733C55.3436 13.733 55.6945 13.6222 55.9757 13.4006C56.2598 13.1761 56.4729 12.875 56.6149 12.4972C56.7598 12.1165 56.8322 11.6932 56.8322 11.2273C56.8322 10.767 56.7612 10.3523 56.6192 9.98295C56.48 9.6108 56.2683 9.31676 55.9842 9.10085C55.703 8.8821 55.3493 8.77273 54.9232 8.77273C54.5141 8.77273 54.1703 8.87642 53.8919 9.08381C53.6135 9.28835 53.4033 9.57528 53.2612 9.9446C53.1192 10.3111 53.0482 10.7386 53.0482 11.2273ZM59.192 16.9545V7.95455H60.1636V8.99432H60.2829C60.3568 8.88068 60.4591 8.7358 60.5897 8.55966C60.7233 8.38068 60.9136 8.22159 61.1608 8.08239C61.4108 7.94034 61.7488 7.86932 62.175 7.86932C62.7261 7.86932 63.2119 8.0071 63.6324 8.28267C64.0528 8.55824 64.3809 8.94886 64.6167 9.45455C64.8525 9.96023 64.9704 10.5568 64.9704 11.2443C64.9704 11.9375 64.8525 12.5384 64.6167 13.0469C64.3809 13.5526 64.0542 13.9446 63.6366 14.223C63.219 14.4986 62.7375 14.6364 62.192 14.6364C61.7716 14.6364 61.4349 14.5668 61.1821 14.4276C60.9292 14.2855 60.7346 14.125 60.5983 13.946C60.4619 13.7642 60.3568 13.6136 60.2829 13.4943H60.1977V16.9545H59.192ZM60.1807 11.2273C60.1807 11.7216 60.2531 12.1577 60.398 12.5355C60.5429 12.9105 60.7545 13.2045 61.0329 13.4176C61.3113 13.6278 61.6522 13.733 62.0557 13.733C62.4761 13.733 62.827 13.6222 63.1082 13.4006C63.3923 13.1761 63.6054 12.875 63.7474 12.4972C63.8923 12.1165 63.9647 11.6932 63.9647 11.2273C63.9647 10.767 63.8937 10.3523 63.7517 9.98295C63.6125 9.6108 63.4008 9.31676 63.1167 9.10085C62.8355 8.8821 62.4818 8.77273 62.0557 8.77273C61.6466 8.77273 61.3028 8.87642 61.0244 9.08381C60.746 9.28835 60.5358 9.57528 60.3937 9.9446C60.2517 10.3111 60.1807 10.7386 60.1807 11.2273ZM66.3245 14.5V7.95455H67.2961V8.94318H67.3643C67.4836 8.61932 67.6995 8.35653 68.012 8.15483C68.3245 7.95312 68.6768 7.85227 69.0688 7.85227C69.1427 7.85227 69.235 7.85369 69.3458 7.85653C69.4566 7.85937 69.5404 7.86364 69.5972 7.86932V8.89205C69.5632 8.88352 69.485 8.87074 69.3629 8.85369C69.2436 8.83381 69.1171 8.82386 68.9836 8.82386C68.6654 8.82386 68.3813 8.89062 68.1313 9.02415C67.8842 9.15483 67.6882 9.33665 67.5433 9.5696C67.4012 9.79972 67.3302 10.0625 67.3302 10.358V14.5H66.3245ZM73.0692 14.6364C72.4783 14.6364 71.9599 14.4957 71.5138 14.2145C71.0707 13.9332 70.7241 13.5398 70.4741 13.0341C70.2269 12.5284 70.1033 11.9375 70.1033 11.2614C70.1033 10.5795 70.2269 9.98437 70.4741 9.47585C70.7241 8.96733 71.0707 8.57244 71.5138 8.29119C71.9599 8.00994 72.4783 7.86932 73.0692 7.86932C73.6601 7.86932 74.1772 8.00994 74.6204 8.29119C75.0664 8.57244 75.413 8.96733 75.6601 9.47585C75.9101 9.98437 76.0351 10.5795 76.0351 11.2614C76.0351 11.9375 75.9101 12.5284 75.6601 13.0341C75.413 13.5398 75.0664 13.9332 74.6204 14.2145C74.1772 14.4957 73.6601 14.6364 73.0692 14.6364ZM73.0692 13.733C73.5181 13.733 73.8874 13.6179 74.1772 13.3878C74.467 13.1577 74.6815 12.8551 74.8207 12.4801C74.9599 12.1051 75.0295 11.6989 75.0295 11.2614C75.0295 10.8239 74.9599 10.4162 74.8207 10.0384C74.6815 9.66051 74.467 9.35511 74.1772 9.12216C73.8874 8.8892 73.5181 8.77273 73.0692 8.77273C72.6204 8.77273 72.2511 8.8892 71.9613 9.12216C71.6715 9.35511 71.457 9.66051 71.3178 10.0384C71.1786 10.4162 71.109 10.8239 71.109 11.2614C71.109 11.6989 71.1786 12.1051 71.3178 12.4801C71.457 12.8551 71.6715 13.1577 71.9613 13.3878C72.2511 13.6179 72.6204 13.733 73.0692 13.733ZM82.5082 7.95455L80.0877 14.5H79.065L76.6446 7.95455H77.7355L79.5423 13.1705H79.6105L81.4173 7.95455H82.5082ZM86.1656 14.6364C85.5349 14.6364 84.9908 14.4972 84.5335 14.2188C84.0789 13.9375 83.7281 13.5455 83.4809 13.0426C83.2366 12.5369 83.1144 11.9489 83.1144 11.2784C83.1144 10.608 83.2366 10.017 83.4809 9.50568C83.7281 8.99148 84.0718 8.59091 84.5121 8.30398C84.9553 8.0142 85.4724 7.86932 86.0633 7.86932C86.4042 7.86932 86.7408 7.92614 87.0732 8.03977C87.4056 8.15341 87.7082 8.33807 87.9809 8.59375C88.2536 8.84659 88.471 9.18182 88.6329 9.59943C88.7948 10.017 88.8758 10.5312 88.8758 11.142V11.5682H83.8303V10.6989H87.8531C87.8531 10.3295 87.7792 10 87.6315 9.71023C87.4866 9.42045 87.2792 9.19176 87.0093 9.02415C86.7423 8.85653 86.4269 8.77273 86.0633 8.77273C85.6627 8.77273 85.3161 8.87216 85.0235 9.07102C84.7337 9.26705 84.5107 9.52273 84.3545 9.83807C84.1982 10.1534 84.1201 10.4915 84.1201 10.8523V11.4318C84.1201 11.9261 84.2053 12.3452 84.3758 12.6889C84.5491 13.0298 84.7891 13.2898 85.096 13.4688C85.4028 13.6449 85.7593 13.733 86.1656 13.733C86.4298 13.733 86.6684 13.696 86.8815 13.6222C87.0974 13.5455 87.2835 13.4318 87.4397 13.2812C87.596 13.1278 87.7167 12.9375 87.8019 12.7102L88.7735 12.983C88.6712 13.3125 88.4994 13.6023 88.2579 13.8523C88.0164 14.0994 87.7181 14.2926 87.363 14.4318C87.0079 14.5682 86.6087 14.6364 86.1656 14.6364ZM92.6972 14.6364C92.1517 14.6364 91.6702 14.4986 91.2526 14.223C90.835 13.9446 90.5083 13.5526 90.2725 13.0469C90.0367 12.5384 89.9188 11.9375 89.9188 11.2443C89.9188 10.5568 90.0367 9.96023 90.2725 9.45455C90.5083 8.94886 90.8364 8.55824 91.2569 8.28267C91.6773 8.0071 92.1631 7.86932 92.7142 7.86932C93.1404 7.86932 93.477 7.94034 93.7242 8.08239C93.9742 8.22159 94.1645 8.38068 94.2952 8.55966C94.4287 8.7358 94.5324 8.88068 94.6063 8.99432H94.6915V5.77273H95.6972V14.5H94.7256V13.4943H94.6063C94.5324 13.6136 94.4273 13.7642 94.2909 13.946C94.1546 14.125 93.96 14.2855 93.7071 14.4276C93.4543 14.5668 93.1177 14.6364 92.6972 14.6364ZM92.8336 13.733C93.237 13.733 93.5779 13.6278 93.8563 13.4176C94.1347 13.2045 94.3463 12.9105 94.4912 12.5355C94.6361 12.1577 94.7086 11.7216 94.7086 11.2273C94.7086 10.7386 94.6375 10.3111 94.4955 9.9446C94.3534 9.57528 94.1432 9.28835 93.8648 9.08381C93.5864 8.87642 93.2427 8.77273 92.8336 8.77273C92.4074 8.77273 92.0523 8.8821 91.7682 9.10085C91.487 9.31676 91.2753 9.6108 91.1333 9.98295C90.9941 10.3523 90.9245 10.767 90.9245 11.2273C90.9245 11.6932 90.9955 12.1165 91.1375 12.4972C91.2824 12.875 91.4955 13.1761 91.7767 13.4006C92.0608 13.6222 92.4131 13.733 92.8336 13.733Z" fill="#333333"/>
</svg>
