<svg width="94" height="20" viewBox="0 0 94 20" fill="none" xmlns="http://www.w3.org/2000/svg">
<rect width="94" height="20" rx="10" fill="#FFEFEF"/>
<circle cx="10" cy="10" r="5" fill="#FF3939"/>
<path d="M27.9773 5.77273V14.5H26.9545L22.1989 7.64773H22.1136V14.5H21.0568V5.77273H22.0795L26.8523 12.642H26.9375V5.77273H27.9773ZM32.4347 14.6364C31.8438 14.6364 31.3253 14.4957 30.8793 14.2145C30.4361 13.9332 30.0895 13.5398 29.8395 13.0341C29.5924 12.5284 29.4688 11.9375 29.4688 11.2614C29.4688 10.5795 29.5924 9.98437 29.8395 9.47585C30.0895 8.96733 30.4361 8.57244 30.8793 8.29119C31.3253 8.00994 31.8438 7.86932 32.4347 7.86932C33.0256 7.86932 33.5427 8.00994 33.9858 8.29119C34.4319 8.57244 34.7785 8.96733 35.0256 9.47585C35.2756 9.98437 35.4006 10.5795 35.4006 11.2614C35.4006 11.9375 35.2756 12.5284 35.0256 13.0341C34.7785 13.5398 34.4319 13.9332 33.9858 14.2145C33.5427 14.4957 33.0256 14.6364 32.4347 14.6364ZM32.4347 13.733C32.8836 13.733 33.2529 13.6179 33.5427 13.3878C33.8324 13.1577 34.0469 12.8551 34.1861 12.4801C34.3253 12.1051 34.3949 11.6989 34.3949 11.2614C34.3949 10.8239 34.3253 10.4162 34.1861 10.0384C34.0469 9.66051 33.8324 9.35511 33.5427 9.12216C33.2529 8.8892 32.8836 8.77273 32.4347 8.77273C31.9858 8.77273 31.6165 8.8892 31.3267 9.12216C31.037 9.35511 30.8225 9.66051 30.6833 10.0384C30.5441 10.4162 30.4745 10.8239 30.4745 11.2614C30.4745 11.6989 30.5441 12.1051 30.6833 12.4801C30.8225 12.8551 31.037 13.1577 31.3267 13.3878C31.6165 13.6179 31.9858 13.733 32.4347 13.733ZM39.6024 7.95455V8.80682H36.2103V7.95455H39.6024ZM37.1989 6.38636H38.2046V12.625C38.2046 12.9091 38.2458 13.1222 38.3282 13.2642C38.4134 13.4034 38.5214 13.4972 38.6521 13.5455C38.7856 13.5909 38.9262 13.6136 39.0739 13.6136C39.1847 13.6136 39.2757 13.608 39.3467 13.5966C39.4177 13.5824 39.4745 13.571 39.5171 13.5625L39.7217 14.4659C39.6535 14.4915 39.5583 14.517 39.4362 14.5426C39.314 14.571 39.1592 14.5852 38.9717 14.5852C38.6876 14.5852 38.4092 14.5241 38.1364 14.402C37.8666 14.2798 37.6421 14.0938 37.4632 13.8438C37.287 13.5938 37.1989 13.2784 37.1989 12.8977V6.38636ZM44.6245 5.77273L47.2154 13.1193H47.3176L49.9086 5.77273H51.0165L47.812 14.5H46.7211L43.5165 5.77273H44.6245ZM54.1945 14.6364C53.5638 14.6364 53.0197 14.4972 52.5624 14.2188C52.1078 13.9375 51.757 13.5455 51.5098 13.0426C51.2655 12.5369 51.1433 11.9489 51.1433 11.2784C51.1433 10.608 51.2655 10.017 51.5098 9.50568C51.757 8.99148 52.1007 8.59091 52.5411 8.30398C52.9842 8.0142 53.5013 7.86932 54.0922 7.86932C54.4331 7.86932 54.7697 7.92614 55.1021 8.03977C55.4345 8.15341 55.7371 8.33807 56.0098 8.59375C56.2825 8.84659 56.4999 9.18182 56.6618 9.59943C56.8237 10.017 56.9047 10.5312 56.9047 11.142V11.5682H51.8592V10.6989H55.882C55.882 10.3295 55.8081 10 55.6604 9.71023C55.5155 9.42045 55.3081 9.19176 55.0382 9.02415C54.7712 8.85653 54.4558 8.77273 54.0922 8.77273C53.6916 8.77273 53.345 8.87216 53.0524 9.07102C52.7626 9.26705 52.5396 9.52273 52.3834 9.83807C52.2271 10.1534 52.149 10.4915 52.149 10.8523V11.4318C52.149 11.9261 52.2342 12.3452 52.4047 12.6889C52.578 13.0298 52.818 13.2898 53.1249 13.4688C53.4317 13.6449 53.7882 13.733 54.1945 13.733C54.4587 13.733 54.6973 13.696 54.9104 13.6222C55.1263 13.5455 55.3124 13.4318 55.4686 13.2812C55.6249 13.1278 55.7456 12.9375 55.8308 12.7102L56.8024 12.983C56.7001 13.3125 56.5283 13.6023 56.2868 13.8523C56.0453 14.0994 55.747 14.2926 55.3919 14.4318C55.0368 14.5682 54.6376 14.6364 54.1945 14.6364ZM58.2545 14.5V7.95455H59.2261V8.94318H59.2943C59.4136 8.61932 59.6295 8.35653 59.942 8.15483C60.2545 7.95312 60.6068 7.85227 60.9988 7.85227C61.0727 7.85227 61.165 7.85369 61.2758 7.85653C61.3866 7.85937 61.4704 7.86364 61.5272 7.86932V8.89205C61.4932 8.88352 61.415 8.87074 61.2929 8.85369C61.1735 8.83381 61.0471 8.82386 60.9136 8.82386C60.5954 8.82386 60.3113 8.89062 60.0613 9.02415C59.8142 9.15483 59.6182 9.33665 59.4733 9.5696C59.3312 9.79972 59.2602 10.0625 59.2602 10.358V14.5H58.2545ZM62.5394 14.5V7.95455H63.545V14.5H62.5394ZM63.0507 6.86364C62.8547 6.86364 62.6857 6.79688 62.5436 6.66335C62.4044 6.52983 62.3348 6.36932 62.3348 6.18182C62.3348 5.99432 62.4044 5.83381 62.5436 5.70028C62.6857 5.56676 62.8547 5.5 63.0507 5.5C63.2467 5.5 63.4144 5.56676 63.5536 5.70028C63.6956 5.83381 63.7666 5.99432 63.7666 6.18182C63.7666 6.36932 63.6956 6.52983 63.5536 6.66335C63.4144 6.79688 63.2467 6.86364 63.0507 6.86364ZM68.1218 7.95455V8.80682H64.5934V7.95455H68.1218ZM65.6502 14.5V7.05114C65.6502 6.67614 65.7383 6.36364 65.9144 6.11364C66.0905 5.86364 66.3192 5.67614 66.6005 5.55114C66.8817 5.42614 67.1786 5.36364 67.4911 5.36364C67.7383 5.36364 67.94 5.38352 68.0962 5.4233C68.2525 5.46307 68.369 5.5 68.4457 5.53409L68.1559 6.40341C68.1047 6.38636 68.0337 6.36506 67.9428 6.33949C67.8547 6.31392 67.7383 6.30114 67.5934 6.30114C67.261 6.30114 67.0209 6.38494 66.8732 6.55256C66.7283 6.72017 66.6559 6.96591 66.6559 7.28977V14.5H65.6502ZM69.3512 14.5V7.95455H70.3569V14.5H69.3512ZM69.8626 6.86364C69.6666 6.86364 69.4975 6.79688 69.3555 6.66335C69.2163 6.52983 69.1467 6.36932 69.1467 6.18182C69.1467 5.99432 69.2163 5.83381 69.3555 5.70028C69.4975 5.56676 69.6666 5.5 69.8626 5.5C70.0586 5.5 70.2262 5.56676 70.3654 5.70028C70.5075 5.83381 70.5785 5.99432 70.5785 6.18182C70.5785 6.36932 70.5075 6.52983 70.3654 6.66335C70.2262 6.79688 70.0586 6.86364 69.8626 6.86364ZM74.7632 14.6364C74.1325 14.6364 73.5885 14.4972 73.1311 14.2188C72.6766 13.9375 72.3257 13.5455 72.0786 13.0426C71.8342 12.5369 71.7121 11.9489 71.7121 11.2784C71.7121 10.608 71.8342 10.017 72.0786 9.50568C72.3257 8.99148 72.6695 8.59091 73.1098 8.30398C73.553 8.0142 74.07 7.86932 74.6609 7.86932C75.0018 7.86932 75.3385 7.92614 75.6709 8.03977C76.0033 8.15341 76.3058 8.33807 76.5786 8.59375C76.8513 8.84659 77.0686 9.18182 77.2305 9.59943C77.3925 10.017 77.4734 10.5312 77.4734 11.142V11.5682H72.428V10.6989H76.4507C76.4507 10.3295 76.3768 10 76.2291 9.71023C76.0842 9.42045 75.8768 9.19176 75.607 9.02415C75.3399 8.85653 75.0246 8.77273 74.6609 8.77273C74.2604 8.77273 73.9138 8.87216 73.6212 9.07102C73.3314 9.26705 73.1084 9.52273 72.9521 9.83807C72.7959 10.1534 72.7178 10.4915 72.7178 10.8523V11.4318C72.7178 11.9261 72.803 12.3452 72.9734 12.6889C73.1467 13.0298 73.3868 13.2898 73.6936 13.4688C74.0004 13.6449 74.357 13.733 74.7632 13.733C75.0274 13.733 75.2661 13.696 75.4791 13.6222C75.695 13.5455 75.8811 13.4318 76.0374 13.2812C76.1936 13.1278 76.3143 12.9375 76.3996 12.7102L77.3712 12.983C77.2689 13.3125 77.097 13.6023 76.8555 13.8523C76.6141 14.0994 76.3158 14.2926 75.9607 14.4318C75.6055 14.5682 75.2064 14.6364 74.7632 14.6364ZM81.2949 14.6364C80.7494 14.6364 80.2679 14.4986 79.8503 14.223C79.4326 13.9446 79.1059 13.5526 78.8701 13.0469C78.6343 12.5384 78.5164 11.9375 78.5164 11.2443C78.5164 10.5568 78.6343 9.96023 78.8701 9.45455C79.1059 8.94886 79.4341 8.55824 79.8545 8.28267C80.275 8.0071 80.7608 7.86932 81.3119 7.86932C81.738 7.86932 82.0747 7.94034 82.3218 8.08239C82.5718 8.22159 82.7622 8.38068 82.8929 8.55966C83.0264 8.7358 83.1301 8.88068 83.2039 8.99432H83.2892V5.77273H84.2949V14.5H83.3233V13.4943H83.2039C83.1301 13.6136 83.025 13.7642 82.8886 13.946C82.7522 14.125 82.5576 14.2855 82.3048 14.4276C82.052 14.5668 81.7153 14.6364 81.2949 14.6364ZM81.4312 13.733C81.8346 13.733 82.1755 13.6278 82.4539 13.4176C82.7324 13.2045 82.944 12.9105 83.0889 12.5355C83.2338 12.1577 83.3062 11.7216 83.3062 11.2273C83.3062 10.7386 83.2352 10.3111 83.0932 9.9446C82.9511 9.57528 82.7409 9.28835 82.4625 9.08381C82.1841 8.87642 81.8403 8.77273 81.4312 8.77273C81.0051 8.77273 80.65 8.8821 80.3659 9.10085C80.0846 9.31676 79.873 9.6108 79.7309 9.98295C79.5917 10.3523 79.5221 10.767 79.5221 11.2273C79.5221 11.6932 79.5932 12.1165 79.7352 12.4972C79.8801 12.875 80.0932 13.1761 80.3744 13.4006C80.6585 13.6222 81.0108 13.733 81.4312 13.733Z" fill="#333333"/>
</svg>
