<svg width="71" height="20" viewBox="0 0 71 20" fill="none" xmlns="http://www.w3.org/2000/svg">
<rect width="71" height="20" rx="10" fill="#C8FFDC"/>
<circle cx="10" cy="10" r="5" fill="#79BD92"/>
<path d="M21.4148 5.77273L24.0057 13.1193H24.108L26.6989 5.77273H27.8068L24.6023 14.5H23.5114L20.3068 5.77273H21.4148ZM30.9848 14.6364C30.3541 14.6364 29.8101 14.4972 29.3527 14.2188C28.8981 13.9375 28.5473 13.5455 28.3001 13.0426C28.0558 12.5369 27.9336 11.9489 27.9336 11.2784C27.9336 10.608 28.0558 10.017 28.3001 9.50568C28.5473 8.99148 28.891 8.59091 29.3314 8.30398C29.7745 8.0142 30.2916 7.86932 30.8825 7.86932C31.2234 7.86932 31.5601 7.92614 31.8924 8.03977C32.2248 8.15341 32.5274 8.33807 32.8001 8.59375C33.0728 8.84659 33.2902 9.18182 33.4521 9.59943C33.614 10.017 33.695 10.5312 33.695 11.142V11.5682H28.6495V10.6989H32.6723C32.6723 10.3295 32.5984 10 32.4507 9.71023C32.3058 9.42045 32.0984 9.19176 31.8285 9.02415C31.5615 8.85653 31.2461 8.77273 30.8825 8.77273C30.4819 8.77273 30.1353 8.87216 29.8427 9.07102C29.553 9.26705 29.3299 9.52273 29.1737 9.83807C29.0174 10.1534 28.9393 10.4915 28.9393 10.8523V11.4318C28.9393 11.9261 29.0245 12.3452 29.195 12.6889C29.3683 13.0298 29.6084 13.2898 29.9152 13.4688C30.222 13.6449 30.5785 13.733 30.9848 13.733C31.249 13.733 31.4876 13.696 31.7007 13.6222C31.9166 13.5455 32.1027 13.4318 32.2589 13.2812C32.4152 13.1278 32.5359 12.9375 32.6211 12.7102L33.5927 12.983C33.4905 13.3125 33.3186 13.6023 33.0771 13.8523C32.8356 14.0994 32.5373 14.2926 32.1822 14.4318C31.8271 14.5682 31.428 14.6364 30.9848 14.6364ZM35.0448 14.5V7.95455H36.0164V8.94318H36.0846C36.2039 8.61932 36.4198 8.35653 36.7323 8.15483C37.0448 7.95312 37.3971 7.85227 37.7891 7.85227C37.863 7.85227 37.9553 7.85369 38.0661 7.85653C38.1769 7.85937 38.2607 7.86364 38.3176 7.86932V8.89205C38.2835 8.88352 38.2053 8.87074 38.0832 8.85369C37.9639 8.83381 37.8374 8.82386 37.7039 8.82386C37.3857 8.82386 37.1016 8.89062 36.8516 9.02415C36.6045 9.15483 36.4085 9.33665 36.2636 9.5696C36.1215 9.79972 36.0505 10.0625 36.0505 10.358V14.5H35.0448ZM39.3297 14.5V7.95455H40.3354V14.5H39.3297ZM39.841 6.86364C39.645 6.86364 39.476 6.79688 39.3339 6.66335C39.1947 6.52983 39.1251 6.36932 39.1251 6.18182C39.1251 5.99432 39.1947 5.83381 39.3339 5.70028C39.476 5.56676 39.645 5.5 39.841 5.5C40.0371 5.5 40.2047 5.56676 40.3439 5.70028C40.4859 5.83381 40.5569 5.99432 40.5569 6.18182C40.5569 6.36932 40.4859 6.52983 40.3439 6.66335C40.2047 6.79688 40.0371 6.86364 39.841 6.86364ZM44.9121 7.95455V8.80682H41.3837V7.95455H44.9121ZM42.4405 14.5V7.05114C42.4405 6.67614 42.5286 6.36364 42.7047 6.11364C42.8809 5.86364 43.1095 5.67614 43.3908 5.55114C43.672 5.42614 43.9689 5.36364 44.2814 5.36364C44.5286 5.36364 44.7303 5.38352 44.8865 5.4233C45.0428 5.46307 45.1593 5.5 45.236 5.53409L44.9462 6.40341C44.8951 6.38636 44.824 6.36506 44.7331 6.33949C44.6451 6.31392 44.5286 6.30114 44.3837 6.30114C44.0513 6.30114 43.8113 6.38494 43.6635 6.55256C43.5186 6.72017 43.4462 6.96591 43.4462 7.28977V14.5H42.4405ZM46.1415 14.5V7.95455H47.1472V14.5H46.1415ZM46.6529 6.86364C46.4569 6.86364 46.2879 6.79688 46.1458 6.66335C46.0066 6.52983 45.937 6.36932 45.937 6.18182C45.937 5.99432 46.0066 5.83381 46.1458 5.70028C46.2879 5.56676 46.4569 5.5 46.6529 5.5C46.8489 5.5 47.0165 5.56676 47.1558 5.70028C47.2978 5.83381 47.3688 5.99432 47.3688 6.18182C47.3688 6.36932 47.2978 6.52983 47.1558 6.66335C47.0165 6.79688 46.8489 6.86364 46.6529 6.86364ZM51.5535 14.6364C50.9228 14.6364 50.3788 14.4972 49.9214 14.2188C49.4669 13.9375 49.116 13.5455 48.8689 13.0426C48.6245 12.5369 48.5024 11.9489 48.5024 11.2784C48.5024 10.608 48.6245 10.017 48.8689 9.50568C49.116 8.99148 49.4598 8.59091 49.9001 8.30398C50.3433 8.0142 50.8603 7.86932 51.4513 7.86932C51.7922 7.86932 52.1288 7.92614 52.4612 8.03977C52.7936 8.15341 53.0961 8.33807 53.3689 8.59375C53.6416 8.84659 53.8589 9.18182 54.0209 9.59943C54.1828 10.017 54.2638 10.5312 54.2638 11.142V11.5682H49.2183V10.6989H53.241C53.241 10.3295 53.1672 10 53.0194 9.71023C52.8745 9.42045 52.6672 9.19176 52.3973 9.02415C52.1302 8.85653 51.8149 8.77273 51.4513 8.77273C51.0507 8.77273 50.7041 8.87216 50.4115 9.07102C50.1217 9.26705 49.8987 9.52273 49.7424 9.83807C49.5862 10.1534 49.5081 10.4915 49.5081 10.8523V11.4318C49.5081 11.9261 49.5933 12.3452 49.7638 12.6889C49.937 13.0298 50.1771 13.2898 50.4839 13.4688C50.7907 13.6449 51.1473 13.733 51.5535 13.733C51.8177 13.733 52.0564 13.696 52.2694 13.6222C52.4853 13.5455 52.6714 13.4318 52.8277 13.2812C52.9839 13.1278 53.1047 12.9375 53.1899 12.7102L54.1615 12.983C54.0592 13.3125 53.8873 13.6023 53.6459 13.8523C53.4044 14.0994 53.1061 14.2926 52.751 14.4318C52.3959 14.5682 51.9967 14.6364 51.5535 14.6364ZM58.0852 14.6364C57.5397 14.6364 57.0582 14.4986 56.6406 14.223C56.223 13.9446 55.8963 13.5526 55.6605 13.0469C55.4247 12.5384 55.3068 11.9375 55.3068 11.2443C55.3068 10.5568 55.4247 9.96023 55.6605 9.45455C55.8963 8.94886 56.2244 8.55824 56.6448 8.28267C57.0653 8.0071 57.5511 7.86932 58.1022 7.86932C58.5284 7.86932 58.865 7.94034 59.1122 8.08239C59.3622 8.22159 59.5525 8.38068 59.6832 8.55966C59.8167 8.7358 59.9204 8.88068 59.9943 8.99432H60.0795V5.77273H61.0852V14.5H60.1136V13.4943H59.9943C59.9204 13.6136 59.8153 13.7642 59.6789 13.946C59.5426 14.125 59.348 14.2855 59.0951 14.4276C58.8423 14.5668 58.5056 14.6364 58.0852 14.6364ZM58.2215 13.733C58.6249 13.733 58.9659 13.6278 59.2443 13.4176C59.5227 13.2045 59.7343 12.9105 59.8792 12.5355C60.0241 12.1577 60.0965 11.7216 60.0965 11.2273C60.0965 10.7386 60.0255 10.3111 59.8835 9.9446C59.7414 9.57528 59.5312 9.28835 59.2528 9.08381C58.9744 8.87642 58.6306 8.77273 58.2215 8.77273C57.7954 8.77273 57.4403 8.8821 57.1562 9.10085C56.8749 9.31676 56.6633 9.6108 56.5213 9.98295C56.382 10.3523 56.3124 10.767 56.3124 11.2273C56.3124 11.6932 56.3835 12.1165 56.5255 12.4972C56.6704 12.875 56.8835 13.1761 57.1647 13.4006C57.4488 13.6222 57.8011 13.733 58.2215 13.733Z" fill="#333333"/>
</svg>
