<svg width="168" height="30" viewBox="0 0 168 30" fill="none" xmlns="http://www.w3.org/2000/svg">
<path d="M0 22.2061C0 22.0925 0.0829552 21.9942 0.193987 21.9764C0.547501 21.9164 0.835929 21.8564 1.05799 21.7951C1.31962 21.7237 1.51871 21.6216 1.65654 21.4888C1.79437 21.3561 1.88243 21.1711 1.92327 20.9362C1.96284 20.7014 1.98326 20.3785 1.98326 19.9701V13.0709C1.98326 12.6714 1.96539 12.3562 1.93093 12.1252C1.8952 11.8942 1.81607 11.713 1.691 11.579C1.5672 11.4462 1.3796 11.3416 1.13201 11.2663C0.920158 11.2012 0.63939 11.1323 0.292257 11.0583C0.185054 11.0353 0.107202 10.9396 0.107202 10.8298V10.4316C0.107202 10.3232 0.1825 10.23 0.287151 10.2045C0.71341 10.1024 1.10649 9.99389 1.46511 9.88031C1.8735 9.75141 2.25892 9.60464 2.62392 9.44128C2.98764 9.27665 3.34371 9.09287 3.68957 8.88868C4.01756 8.69597 4.35576 8.47135 4.70672 8.21483C4.74628 8.18547 4.79478 8.16888 4.84455 8.16888H5.12149C5.25039 8.16888 5.35504 8.27354 5.35504 8.40244V19.9701C5.35504 20.3785 5.37419 20.7001 5.41502 20.9362C5.45459 21.1711 5.54265 21.3561 5.68176 21.4888C5.81959 21.6216 6.01613 21.7237 6.27392 21.7951C6.49343 21.8551 6.77803 21.9164 7.13155 21.9764C7.24386 21.9955 7.32553 22.0925 7.32553 22.2061V22.5468C7.32553 22.6757 7.22088 22.7804 7.09198 22.7804H0.233549C0.104651 22.7804 0 22.6757 0 22.5468V22.2061ZM8.57751 22.2061C8.57751 22.0925 8.66046 21.9942 8.7715 21.9764C9.12501 21.9164 9.41344 21.8564 9.6355 21.7951C9.89713 21.7237 10.0962 21.6216 10.2353 21.4888C10.3732 21.3561 10.4612 21.1711 10.5008 20.9362C10.5403 20.7014 10.562 20.3785 10.562 19.9701V13.9502C10.562 13.3823 10.5059 12.896 10.3949 12.4915C10.2838 12.0869 10.1192 11.7589 9.90223 11.5062C9.684 11.2535 9.42109 11.0685 9.10969 10.9536C8.7983 10.8387 8.43968 10.78 8.03129 10.78C7.70202 10.78 7.39573 10.8132 7.1124 10.8796C6.8278 10.9459 6.56618 11.0468 6.32625 11.1795C6.08632 11.3122 5.87064 11.4667 5.68048 11.6389C5.48904 11.8125 5.32314 12.0052 5.1802 12.2184L5.02067 11.1527C5.438 10.7711 5.84001 10.4227 6.22543 10.1062C6.61212 9.79097 7.00137 9.52041 7.397 9.29452C7.79263 9.06862 8.20485 8.89251 8.63494 8.76871C9.06503 8.64492 9.52957 8.58238 10.0273 8.58238C10.622 8.58238 11.1593 8.65513 11.6392 8.80189C12.1178 8.94866 12.5262 9.20135 12.8644 9.56125C13.2013 9.92115 13.4642 10.3933 13.6505 10.9791C13.8381 11.5649 13.9313 12.2975 13.9313 13.1768V19.9701C13.9313 20.3785 13.9504 20.7001 13.9913 20.9362C14.0308 21.1711 14.1202 21.3561 14.258 21.4888C14.3958 21.6216 14.5949 21.7237 14.8578 21.7951C15.0786 21.8551 15.3632 21.9151 15.7091 21.9751C15.8214 21.9942 15.903 22.0912 15.903 22.2048V22.5456C15.903 22.6745 15.7984 22.7791 15.6695 22.7791H8.81106C8.68216 22.7791 8.57751 22.6745 8.57751 22.5456V22.2061ZM17.1678 22.2048C17.1678 22.0912 17.2495 21.9942 17.3618 21.9751C17.7076 21.9151 17.9909 21.8551 18.213 21.7951C18.4746 21.7237 18.675 21.6216 18.8128 21.4888C18.9507 21.3561 19.0387 21.1711 19.0796 20.9362C19.1191 20.7014 19.1396 20.3785 19.1396 19.9701V13.9502C19.1396 13.3823 19.0834 12.896 18.9724 12.4915C18.8613 12.0869 18.6967 11.7589 18.4797 11.5062C18.2615 11.2535 17.9986 11.0685 17.6872 10.9536C17.3758 10.8387 17.021 10.78 16.6216 10.78C16.2834 10.78 15.9732 10.8132 15.6886 10.8796C15.404 10.9459 15.1399 11.0468 14.8961 11.1795C14.6523 11.3122 14.4328 11.4667 14.2363 11.6389C14.041 11.8125 13.8726 12.0052 13.7309 12.2184L13.505 11.1923C13.9223 10.8107 14.3282 10.4597 14.7238 10.1394C15.1182 9.82032 15.5202 9.54466 15.9286 9.31366C16.337 9.08267 16.7607 8.90271 17.201 8.77381C17.6413 8.64492 18.1135 8.58111 18.6201 8.58111C19.2059 8.58111 19.7394 8.65385 20.218 8.80062C20.6965 8.94738 21.1049 9.20008 21.4431 9.55997C21.7801 9.91987 22.0417 10.3921 22.2293 10.9779C22.4156 11.5636 22.5088 12.2962 22.5088 13.1755V19.9689C22.5088 20.3773 22.5279 20.6989 22.5688 20.935C22.6083 21.1698 22.6977 21.3548 22.8355 21.4876C22.9733 21.6203 23.1724 21.7224 23.4353 21.7939C23.6574 21.8538 23.9458 21.9151 24.2993 21.9751C24.4116 21.9942 24.4933 22.0912 24.4933 22.2048V22.5456C24.4933 22.6745 24.3887 22.7791 24.2598 22.7791H17.4013C17.2724 22.7791 17.1678 22.6745 17.1678 22.5456V22.2048Z" fill="#3959FF"/>
<path d="M30.0965 22.9485C29.2555 22.7494 28.4987 22.3933 27.8261 21.8777C27.1536 21.3621 26.5882 20.6883 26.1288 19.8575C25.6706 19.0266 25.3656 18.0389 25.215 16.8954C25.1205 16.1819 25.1129 15.4915 25.1907 14.8228C25.2686 14.154 25.4205 13.5248 25.6476 12.9352C25.8748 12.3456 26.1709 11.8007 26.5346 11.3004C26.8983 10.8001 27.3157 10.3585 27.784 9.9731C28.2524 9.58896 28.7731 9.27246 29.3448 9.02232C29.9166 8.77218 30.5241 8.605 31.166 8.52076C31.9854 8.41356 32.7562 8.45312 33.4785 8.63945C34.2022 8.82578 34.853 9.14101 35.4299 9.58513C36.008 10.028 36.5045 10.5882 36.9205 11.2621C37.2945 11.8696 37.5893 12.5549 37.8062 13.3168C37.8445 13.4534 37.7513 13.5912 37.611 13.6103L27.6819 14.9172L27.6117 13.8784L33.1633 12.8791C33.3382 12.8472 33.4811 12.8153 33.5934 12.7821C33.7057 12.7502 33.7887 12.703 33.8435 12.6417C33.8984 12.5804 33.9342 12.5013 33.9533 12.4056C33.9712 12.3099 33.9712 12.1861 33.952 12.0368C33.9022 11.659 33.8014 11.3157 33.6483 11.0094C33.4951 10.7031 33.2999 10.444 33.0625 10.2335C32.8251 10.0229 32.5418 9.86718 32.2151 9.76763C31.8884 9.66681 31.5221 9.64384 31.1175 9.69744C30.607 9.76508 30.1578 9.92844 29.7724 10.1901C29.3857 10.4517 29.0717 10.8065 28.8305 11.2544C28.5893 11.7024 28.4285 12.241 28.3456 12.8701C28.2626 13.4993 28.2728 14.2089 28.3775 15.0014C28.5076 15.988 28.7399 16.8354 29.0743 17.5424C29.4099 18.2507 29.8183 18.8212 30.3007 19.2551C30.7832 19.689 31.3243 19.9889 31.9241 20.1561C32.5239 20.3233 33.1544 20.3641 33.8142 20.2774C34.2366 20.2212 34.6488 20.1051 35.0509 19.9264C35.4516 19.7477 35.8345 19.5142 36.1943 19.2257C36.5555 18.936 36.8963 18.5851 37.2179 18.1703C37.4897 17.8219 37.7386 17.4314 37.9683 17.0026C38.0359 16.8762 38.2019 16.8417 38.3154 16.9285L38.6945 17.2195C38.78 17.2859 38.8106 17.402 38.7659 17.5003C38.5949 17.8819 38.4175 18.2609 38.2338 18.6412C38.0219 19.0764 37.7909 19.4925 37.5382 19.8881C37.2868 20.2837 37.006 20.6589 36.6985 21.0125C36.3909 21.366 36.0425 21.6812 35.6545 21.9569C35.2653 22.2325 34.8301 22.4661 34.3489 22.6588C33.8678 22.8528 33.3331 22.9881 32.7434 23.0659C31.8207 23.1846 30.9376 23.1463 30.0965 22.9485Z" fill="#3959FF"/>
<path d="M39.2725 22.2048C39.2725 22.0912 39.3554 21.993 39.4664 21.9751C39.82 21.9151 40.1084 21.8551 40.3305 21.7939C40.5921 21.7224 40.7924 21.6203 40.9303 21.4876C41.0681 21.3548 41.1562 21.1698 41.197 20.935C41.2366 20.7001 41.257 20.3773 41.257 19.9689V13.0696C41.257 12.6701 41.2391 12.3549 41.2034 12.1239C41.1689 11.8929 41.0885 11.7117 40.9647 11.5777C40.8397 11.445 40.6533 11.3403 40.4057 11.265C40.1939 11.1999 39.9131 11.131 39.5647 11.057C39.4575 11.034 39.3797 10.9383 39.3797 10.8285V10.4304C39.3797 10.3219 39.455 10.2287 39.5596 10.2032C39.9859 10.1011 40.3789 9.99261 40.7376 9.87903C41.146 9.75013 41.5314 9.60336 41.8964 9.44001C42.2601 9.27537 42.6162 9.0916 42.962 8.8874C43.2887 8.69469 43.6282 8.47007 43.9792 8.21355C44.0187 8.1842 44.0672 8.16888 44.117 8.16888H44.394C44.5229 8.16888 44.6275 8.27354 44.6275 8.40244V19.9701C44.6275 20.3785 44.6466 20.7001 44.6875 20.9362C44.7271 21.1711 44.8164 21.3561 44.9542 21.4888C45.092 21.6216 45.2886 21.7237 45.5464 21.7951C45.7646 21.8551 46.0505 21.9164 46.404 21.9764C46.5163 21.9955 46.598 22.0925 46.598 22.2061V22.5468C46.598 22.6757 46.4933 22.7804 46.3644 22.7804H39.506C39.3771 22.7804 39.2725 22.6757 39.2725 22.5468V22.2048ZM48.118 22.2048C48.118 22.0912 48.2009 21.993 48.312 21.9751C48.6655 21.9151 48.9526 21.8551 49.176 21.7939C49.4376 21.7224 49.638 21.6203 49.7758 21.4876C49.9136 21.3548 50.0017 21.1698 50.0425 20.935C50.0821 20.7001 50.1025 20.3773 50.1025 19.9689V13.9489C50.1025 13.381 50.0361 12.8947 49.9021 12.4902C49.7694 12.0856 49.5844 11.7576 49.3495 11.5049C49.1134 11.2522 48.8301 11.0672 48.497 10.9523C48.1639 10.8375 47.7925 10.7788 47.3854 10.7788C47.0562 10.7788 46.746 10.8119 46.4525 10.8783C46.159 10.9447 45.8884 11.0455 45.6408 11.1782C45.392 11.311 45.1686 11.4654 44.9683 11.6377C44.7679 11.8112 44.5969 12.0039 44.4552 12.2171L44.3148 11.279C44.3033 11.1999 44.3327 11.1195 44.394 11.0672C44.8457 10.6767 45.2656 10.3308 45.6549 10.0334C46.0722 9.71311 46.4831 9.44511 46.8864 9.22815C47.291 9.01119 47.6943 8.84783 48.0988 8.74191C48.5034 8.63471 48.9322 8.58238 49.384 8.58238C49.9787 8.58238 50.5249 8.65513 51.0227 8.80189C51.5204 8.94866 51.9505 9.20135 52.3155 9.56124C52.6792 9.92114 52.9625 10.3933 53.1667 10.9791C53.3722 11.5649 53.473 12.2975 53.473 13.1768V19.9701C53.473 20.3785 53.4934 20.7001 53.533 20.9362C53.5726 21.1711 53.6619 21.3561 53.7997 21.4888C53.9376 21.6216 54.1367 21.7237 54.3996 21.7951C54.6203 21.8551 54.9049 21.9151 55.2508 21.9751C55.3631 21.9942 55.4448 22.0912 55.4448 22.2048V22.5456C55.4448 22.6745 55.3401 22.7791 55.2112 22.7791H48.3528C48.2239 22.7791 48.1193 22.6745 48.1193 22.5456V22.2048H48.118Z" fill="#3959FF"/>
<path d="M59.79 22.6083C59.0217 22.2714 58.3581 21.8043 57.7991 21.2096C57.2401 20.6149 56.8024 19.9066 56.4872 19.0847C56.1719 18.2628 56.0137 17.3643 56.0137 16.3867C56.0137 15.6146 56.1119 14.8833 56.3072 14.1955C56.5025 13.5076 56.7807 12.872 57.1406 12.29C57.5005 11.7094 57.9267 11.1874 58.4194 10.7254C58.912 10.2634 59.4544 9.87033 60.044 9.54616C60.6349 9.222 61.2666 8.97313 61.9417 8.79957C62.6169 8.626 63.3099 8.5405 64.0194 8.5405C64.2147 8.5405 64.4163 8.5456 64.6256 8.55326C64.8349 8.56219 65.0481 8.5775 65.265 8.5992C65.4833 8.62089 65.7002 8.65281 65.9172 8.69237C66.1354 8.73193 66.3447 8.77915 66.5502 8.83147V3.98309C66.5502 3.55683 66.5387 3.22374 66.517 2.98381C66.4953 2.74388 66.4073 2.55372 66.2579 2.41078C66.1073 2.26912 65.8687 2.16192 65.5445 2.09045C65.2574 2.02791 64.8668 1.9539 64.3742 1.87094C64.2619 1.8518 64.1802 1.75481 64.1802 1.63995V1.28515C64.1802 1.16774 64.2696 1.0682 64.3857 1.05289C64.8924 0.990351 65.3607 0.925261 65.7921 0.858897C66.2796 0.7836 66.7467 0.703197 67.1909 0.618966C67.635 0.534735 68.0702 0.441571 68.4964 0.339473C68.9227 0.237374 69.363 0.123794 69.8148 0H69.922V19.4203C69.922 19.7228 69.9411 19.9614 69.982 20.1401C70.0215 20.3175 70.1083 20.4592 70.241 20.5664C70.3738 20.6723 70.5716 20.7514 70.8332 20.7999C71.054 20.8408 71.3411 20.8803 71.6959 20.9186C71.8146 20.9314 71.9052 21.0322 71.9052 21.1509V21.5031C71.9052 21.6167 71.8248 21.7124 71.7125 21.7328C71.3539 21.7966 70.9812 21.8694 70.5933 21.9523C70.1364 22.0506 69.6808 22.1617 69.2277 22.2854C68.7746 22.4092 68.328 22.5407 67.8889 22.6785C67.5584 22.7819 67.2406 22.8865 66.9331 22.9925C66.7837 23.0435 66.6268 22.935 66.6229 22.7768L66.5898 21.0743C66.2873 21.35 65.9746 21.609 65.6505 21.8528C65.3263 22.0978 64.9868 22.3122 64.632 22.4986C64.2772 22.6849 63.9046 22.8342 63.5128 22.9453C63.1222 23.0563 62.7139 23.1124 62.2876 23.1124C61.3917 23.115 60.5583 22.9452 59.79 22.6083ZM64.812 20.9378C65.0289 20.8893 65.2395 20.8229 65.4437 20.7374C65.6479 20.6519 65.8432 20.5511 66.0308 20.4311C66.2171 20.3111 66.3907 20.1758 66.5502 20.0252V12.2594C66.5502 11.8868 66.4877 11.5422 66.3626 11.227C66.2388 10.9117 66.0563 10.6463 65.8164 10.428C65.5764 10.2111 65.2829 10.0413 64.937 9.92137C64.5899 9.80141 64.2045 9.74142 63.7782 9.74142C63.1924 9.74142 62.6462 9.84735 62.1396 10.0605C61.6342 10.2736 61.1964 10.6029 60.8276 11.0457C60.46 11.4899 60.1678 12.0488 59.9559 12.724C59.7428 13.3991 59.6369 14.198 59.6369 15.1207C59.6369 16 59.7568 16.8015 59.9968 17.5251C60.2354 18.2487 60.5609 18.8677 60.9693 19.3833C61.3777 19.8989 61.855 20.2984 62.4012 20.5817C62.9474 20.8663 63.5268 21.0079 64.1394 21.0079C64.3704 21.0105 64.5937 20.9862 64.812 20.9378Z" fill="#3959FF"/>
<path d="M72.9424 22.2101C72.9424 22.0965 73.0253 21.9983 73.1364 21.9804C73.4899 21.9204 73.7783 21.8604 74.0004 21.7992C74.262 21.7277 74.4611 21.6256 74.5989 21.4929C74.7368 21.3601 74.8248 21.1751 74.8657 20.9403C74.9052 20.7055 74.9256 20.3826 74.9256 19.9742V13.0749C74.9256 12.6754 74.9078 12.3602 74.8733 12.1292C74.8376 11.8982 74.7585 11.717 74.6334 11.583C74.5096 11.4503 74.322 11.3456 74.0744 11.2703C73.8625 11.2052 73.5818 11.1363 73.2346 11.0623C73.1274 11.0393 73.0496 10.9436 73.0496 10.8338V10.4357C73.0496 10.3272 73.1249 10.234 73.2295 10.2085C73.6558 10.1064 74.0489 9.99792 74.4075 9.88433C74.8159 9.75544 75.2013 9.60867 75.5663 9.44531C75.93 9.28068 76.2861 9.0969 76.632 8.8927C76.9599 8.7 77.2981 8.47538 77.6491 8.21885C77.6887 8.1895 77.7372 8.17291 77.7869 8.17291H78.0639C78.1928 8.17291 78.2974 8.27756 78.2974 8.40646V19.9742C78.2974 20.3826 78.3166 20.7042 78.3574 20.9403C78.397 21.1751 78.485 21.3601 78.6241 21.4929C78.762 21.6256 78.9585 21.7277 79.2163 21.7992C79.4358 21.8592 79.7204 21.9204 80.0739 21.9804C80.1862 21.9995 80.2679 22.0965 80.2679 22.2101V22.5509C80.2679 22.6798 80.1633 22.7844 80.0344 22.7844H73.1759C73.047 22.7844 72.9424 22.6798 72.9424 22.5509V22.2101ZM75.6863 4.2766C75.4374 4.1745 75.2204 4.03284 75.0341 3.85034C74.8478 3.66784 74.7036 3.45216 74.6015 3.20457C74.4994 2.9557 74.4483 2.68515 74.4483 2.39289C74.4483 2.09936 74.4994 1.8288 74.6015 1.57994C74.7036 1.33107 74.8478 1.11667 75.0341 0.934166C75.2204 0.751665 75.4387 0.60745 75.6863 0.501523C75.9351 0.395597 76.2057 0.341995 76.498 0.341995C76.7826 0.341995 77.0493 0.395597 77.2969 0.501523C77.5457 0.608726 77.7627 0.752942 77.949 0.934166C78.1354 1.11667 78.2821 1.33107 78.3893 1.57994C78.4952 1.8288 78.5488 2.09936 78.5488 2.39289C78.5488 2.68642 78.4952 2.95698 78.3893 3.20457C78.2821 3.45343 78.1354 3.66911 77.949 3.85034C77.7627 4.03284 77.5445 4.1745 77.2969 4.2766C77.0493 4.3787 76.7813 4.42974 76.498 4.42974C76.2057 4.42974 75.9351 4.3787 75.6863 4.2766Z" fill="#3959FF"/>
<path d="M85.1644 23.0722C84.8224 23.0403 84.4919 22.9969 84.1715 22.9395C83.8525 22.8808 83.5436 22.8144 83.245 22.7391C82.9961 22.6753 82.76 22.6051 82.5392 22.526C82.4601 22.4979 82.404 22.429 82.3899 22.3461L81.7875 18.9015C81.7658 18.7739 81.8514 18.6526 81.979 18.631L82.6439 18.5174C82.7562 18.4982 82.866 18.5646 82.9042 18.6718C83.065 19.1274 83.2412 19.5358 83.4326 19.8957C83.6496 20.3041 83.901 20.6512 84.1856 20.9345C84.4689 21.2191 84.7982 21.4348 85.1708 21.5803C85.5435 21.7271 85.9736 21.7998 86.4624 21.7998C86.8172 21.7998 87.1528 21.7603 87.468 21.6799C87.782 21.5995 88.0576 21.4757 88.2937 21.3072C88.5298 21.1387 88.7162 20.9307 88.8527 20.6806C88.9906 20.433 89.0595 20.1395 89.0595 19.8013C89.0595 19.5256 89.011 19.2793 88.9127 19.0623C88.8157 18.8454 88.6715 18.6412 88.4801 18.4497C88.2886 18.2583 88.0513 18.0809 87.7667 17.9163C87.4833 17.7516 87.1579 17.5896 86.7942 17.43L85.5026 16.857C85.0138 16.6439 84.5557 16.409 84.1294 16.1512C83.7032 15.8934 83.3356 15.5961 83.0242 15.2592C82.7128 14.9222 82.469 14.5394 82.2916 14.1131C82.113 13.6869 82.0249 13.1891 82.0249 12.6212C82.0249 11.955 82.1819 11.3667 82.4971 10.8562C82.8124 10.3457 83.2322 9.91306 83.7568 9.55699C84.28 9.2022 84.8837 8.93547 85.569 8.75807C86.2518 8.58068 86.9626 8.49135 87.699 8.49135C88.2146 8.49135 88.734 8.52963 89.2573 8.60493C89.7269 8.67257 90.1953 8.75297 90.665 8.84486C90.7632 8.864 90.8385 8.9444 90.8513 9.04267L91.2635 12.0469C91.2814 12.1733 91.1946 12.2894 91.0683 12.3098L90.4059 12.4145C90.2923 12.4323 90.18 12.3647 90.1468 12.2549C90.0332 11.881 89.8992 11.5479 89.7435 11.2556C89.561 10.9136 89.3466 10.629 89.0978 10.4031C88.8489 10.176 88.5617 10.0075 88.2389 9.89647C87.9147 9.78543 87.5484 9.73056 87.14 9.73056C86.8018 9.73056 86.4917 9.77267 86.2071 9.8569C85.9225 9.94113 85.6788 10.0611 85.4746 10.2168C85.2704 10.3725 85.1108 10.5614 84.996 10.7822C84.8811 11.0042 84.8224 11.262 84.8224 11.5543C84.8224 11.8121 84.8594 12.0456 84.936 12.2537C85.0113 12.4617 85.1287 12.6531 85.2882 12.8267C85.4478 13.0002 85.6481 13.1623 85.8881 13.3129C86.1267 13.4635 86.4075 13.6103 86.7265 13.7519L87.9926 14.3109C88.623 14.5866 89.1846 14.8521 89.6772 15.1099C90.1698 15.3676 90.5871 15.6561 90.9292 15.9751C91.2712 16.2955 91.5303 16.663 91.7076 17.0803C91.885 17.4977 91.9744 17.9992 91.9744 18.585C91.9744 19.3048 91.8212 19.9442 91.5149 20.5032C91.2086 21.0622 90.7926 21.5356 90.2693 21.9211C89.7461 22.3078 89.1348 22.6026 88.438 22.8068C87.7411 23.011 86.9971 23.1131 86.2071 23.1131C85.8536 23.1194 85.5052 23.1041 85.1644 23.0722Z" fill="#3959FF"/>
<path d="M100.233 23.0918C100.01 23.079 99.7884 23.0586 99.5663 23.0318C99.3443 23.005 99.1286 22.9718 98.9205 22.9323C98.8159 22.9118 98.7138 22.8901 98.6142 22.8672C98.4675 22.8327 98.3271 22.9437 98.3271 23.0943V27.1349C98.3271 27.5433 98.3462 27.8636 98.3871 28.0946C98.4266 28.3256 98.5287 28.5068 98.6934 28.6408C98.858 28.7735 99.1133 28.8807 99.4591 28.9611C99.768 29.0326 100.178 29.1105 100.689 29.196C100.802 29.2151 100.886 29.3121 100.886 29.427V29.7664C100.886 29.8953 100.781 30 100.652 30H93.2082C93.0793 30 92.9746 29.8953 92.9746 29.7664V29.4257C92.9746 29.3121 93.0576 29.2151 93.1686 29.196C93.5221 29.136 93.8105 29.0747 94.0339 29.0148C94.2955 28.9433 94.4946 28.8412 94.6324 28.7085C94.7703 28.5757 94.8596 28.3907 94.8992 28.1558C94.9387 27.921 94.9604 27.5981 94.9604 27.1897V13.0555C94.9604 12.665 94.9438 12.3549 94.9132 12.1226C94.8813 11.8916 94.8047 11.7079 94.6796 11.57C94.5546 11.4322 94.367 11.3263 94.113 11.251C93.8973 11.1872 93.6191 11.1182 93.2784 11.0442C93.1711 11.0213 93.0946 10.9255 93.0946 10.8158V10.4291C93.0946 10.3206 93.1699 10.2274 93.2745 10.2019C93.6944 10.0998 94.0824 9.99134 94.4397 9.87903C94.8481 9.75013 95.2348 9.60336 95.5985 9.44001C95.9623 9.27537 96.3209 9.0916 96.6706 8.8874C97.0011 8.69469 97.338 8.47007 97.6813 8.21483C97.7209 8.18547 97.7707 8.16888 97.8204 8.16888H98.0961C98.225 8.16888 98.3297 8.27354 98.3297 8.40244V10.0768C98.3297 10.2734 98.5568 10.3819 98.71 10.2581C98.8976 10.1062 99.0928 9.95815 99.2945 9.81394C99.6365 9.57018 100.005 9.35323 100.4 9.16179C100.795 8.97036 101.208 8.81976 101.639 8.70873C102.069 8.59769 102.519 8.54154 102.99 8.54154C103.87 8.54154 104.671 8.70107 105.395 9.0214C106.118 9.34046 106.737 9.78969 107.253 10.3665C107.769 10.9434 108.168 11.6402 108.453 12.457C108.736 13.2738 108.879 14.1837 108.879 15.1868C108.879 15.959 108.779 16.6941 108.579 17.3909C108.379 18.0877 108.098 18.7297 107.733 19.3154C107.368 19.9012 106.938 20.427 106.44 20.8941C105.942 21.36 105.395 21.7581 104.795 22.0861C104.196 22.4154 103.563 22.6681 102.897 22.8455C102.232 23.0229 101.552 23.1122 100.859 23.1122C100.663 23.1122 100.453 23.1058 100.233 23.0918ZM102.669 21.5999C103.175 21.3995 103.618 21.083 104.001 20.6478C104.382 20.2126 104.687 19.6473 104.914 18.9492C105.14 18.2523 105.253 17.4062 105.253 16.412C105.253 15.6042 105.157 14.8512 104.967 14.1544C104.776 13.4576 104.496 12.8514 104.129 12.3358C103.76 11.8214 103.304 11.4194 102.763 11.131C102.222 10.8426 101.599 10.6984 100.899 10.6984C100.668 10.6984 100.433 10.7188 100.193 10.7583C99.953 10.7979 99.7246 10.8579 99.5076 10.9383C99.2894 11.0187 99.0788 11.1157 98.8746 11.2318C98.7023 11.3288 98.5466 11.4386 98.4062 11.5611C98.3565 11.6045 98.3284 11.6696 98.3284 11.7359V19.2108C98.3284 19.6638 98.3973 20.0595 98.5338 20.3964C98.6717 20.7333 98.8606 21.0141 99.1005 21.2349C99.3404 21.4569 99.6314 21.6241 99.9722 21.7352C100.314 21.8462 100.68 21.9023 101.071 21.9023C101.63 21.8998 102.163 21.8002 102.669 21.5999Z" fill="#3959FF"/>
<path d="M109.901 22.2135C109.901 22.0999 109.984 22.003 110.095 21.9838C110.449 21.9238 110.733 21.8638 110.953 21.8026C111.209 21.7311 111.409 21.629 111.545 21.4963C111.683 21.3636 111.771 21.1785 111.812 20.9437C111.851 20.7089 111.872 20.386 111.872 19.9776V4.03371C111.872 3.60745 111.863 3.27435 111.845 3.03442C111.827 2.79449 111.756 2.60306 111.632 2.4614C111.507 2.31974 111.31 2.2087 111.04 2.1283C110.804 2.0581 110.486 1.97899 110.084 1.88837C109.977 1.86412 109.901 1.76968 109.901 1.65992V1.29109C109.901 1.17496 109.988 1.07669 110.103 1.0601C110.534 0.997561 110.943 0.935026 111.327 0.868663C111.77 0.793365 112.196 0.712963 112.606 0.628732C113.014 0.544501 113.425 0.451336 113.837 0.349238C114.249 0.24714 114.683 0.133559 115.135 0.00976562H115.242V19.9763C115.242 20.3847 115.262 20.7063 115.302 20.9424C115.342 21.1772 115.431 21.3623 115.569 21.495C115.707 21.6277 115.906 21.7298 116.169 21.8013C116.391 21.8613 116.679 21.9226 117.033 21.9825C117.145 22.0017 117.227 22.0987 117.227 22.2123V22.553C117.227 22.6819 117.122 22.7866 116.993 22.7866H110.135C110.006 22.7866 109.901 22.6819 109.901 22.553V22.2135ZM118.746 22.2135C118.746 22.0999 118.829 22.003 118.94 21.9838C119.293 21.9238 119.578 21.8638 119.797 21.8026C120.054 21.7311 120.254 21.629 120.397 21.4963C120.539 21.3636 120.628 21.1785 120.664 20.9437C120.698 20.7089 120.716 20.386 120.716 19.9776V13.9576C120.716 13.3897 120.651 12.9035 120.523 12.4989C120.394 12.0943 120.209 11.7664 119.971 11.5137C119.731 11.261 119.446 11.0759 119.118 10.9611C118.789 10.8462 118.421 10.7875 118.012 10.7875C117.684 10.7875 117.372 10.8207 117.08 10.887C116.788 10.9534 116.513 11.0542 116.261 11.1869C116.008 11.3197 115.782 11.4741 115.582 11.6464C115.515 11.7038 115.453 11.7638 115.393 11.8251C115.258 11.9642 115.022 11.885 114.996 11.6936L114.94 11.2865C114.93 11.2086 114.959 11.1295 115.019 11.0772C115.47 10.6854 115.889 10.3408 116.275 10.0422C116.687 9.72184 117.095 9.45383 117.5 9.23687C117.905 9.01991 118.31 8.85656 118.719 8.75063C119.127 8.64343 119.557 8.5911 120.012 8.5911C120.597 8.5911 121.139 8.66385 121.636 8.81062C122.134 8.95738 122.564 9.21007 122.929 9.56996C123.293 9.92986 123.579 10.4021 123.788 10.9879C123.996 11.5736 124.102 12.3062 124.102 13.1855V19.9789C124.102 20.3873 124.119 20.7089 124.154 20.945C124.19 21.1798 124.279 21.3648 124.421 21.4976C124.563 21.6303 124.763 21.7324 125.021 21.8039C125.239 21.8638 125.525 21.9251 125.878 21.9851C125.991 22.0042 126.072 22.1012 126.072 22.2148V22.5556C126.072 22.6845 125.968 22.7891 125.839 22.7891H118.98C118.852 22.7891 118.747 22.6845 118.747 22.5556V22.2135H118.746Z" fill="#3959FF"/>
<path d="M132.023 22.9485C131.182 22.7494 130.425 22.3933 129.753 21.8777C129.08 21.3621 128.515 20.6883 128.056 19.8575C127.597 19.0266 127.292 18.0389 127.142 16.8954C127.047 16.1819 127.04 15.4915 127.117 14.8228C127.195 14.154 127.347 13.5248 127.574 12.9352C127.802 12.3456 128.098 11.8007 128.461 11.3004C128.825 10.8001 129.242 10.3585 129.711 9.9731C130.179 9.58896 130.7 9.27246 131.272 9.02232C131.843 8.77218 132.451 8.605 133.093 8.52076C133.912 8.41356 134.683 8.45312 135.405 8.63945C136.129 8.82578 136.78 9.14101 137.357 9.58513C137.935 10.028 138.431 10.5882 138.847 11.2621C139.221 11.8696 139.516 12.5549 139.733 13.3168C139.771 13.4534 139.678 13.5912 139.538 13.6103L129.609 14.9172L129.538 13.8784L135.09 12.8791C135.265 12.8472 135.408 12.8153 135.52 12.7821C135.632 12.7502 135.715 12.703 135.77 12.6417C135.825 12.5804 135.861 12.5013 135.88 12.4056C135.898 12.3099 135.898 12.1861 135.879 12.0368C135.829 11.659 135.728 11.3157 135.575 11.0094C135.423 10.7031 135.227 10.444 134.989 10.2335C134.752 10.0229 134.469 9.86718 134.142 9.76763C133.815 9.66681 133.449 9.64384 133.044 9.69744C132.534 9.76508 132.085 9.92844 131.699 10.1901C131.312 10.4517 130.998 10.8065 130.757 11.2544C130.516 11.7024 130.355 12.241 130.272 12.8701C130.189 13.4993 130.2 14.2089 130.304 15.0014C130.434 15.988 130.667 16.8354 131.001 17.5424C131.337 18.2507 131.745 18.8212 132.227 19.2551C132.71 19.689 133.251 19.9889 133.851 20.1561C134.451 20.3233 135.081 20.3641 135.741 20.2774C136.163 20.2212 136.576 20.1051 136.978 19.9264C137.378 19.7477 137.761 19.5142 138.121 19.2257C138.482 18.936 138.823 18.5851 139.145 18.1703C139.416 17.8219 139.665 17.4314 139.895 17.0026C139.963 16.8762 140.129 16.8417 140.242 16.9285L140.621 17.2195C140.707 17.2859 140.737 17.402 140.693 17.5003C140.522 17.8819 140.344 18.2609 140.161 18.6412C139.949 19.0764 139.718 19.4925 139.465 19.8881C139.214 20.2837 138.933 20.6589 138.625 21.0125C138.318 21.366 137.969 21.6812 137.581 21.9569C137.192 22.2325 136.757 22.4661 136.276 22.6588C135.795 22.8528 135.26 22.9881 134.67 23.0659C133.747 23.1846 132.864 23.1463 132.023 22.9485Z" fill="#3959FF"/>
<path d="M141.866 22.209C141.866 22.0954 141.949 21.9971 142.06 21.9793C142.414 21.9193 142.702 21.8593 142.924 21.798C143.186 21.7266 143.385 21.6245 143.523 21.4917C143.661 21.359 143.749 21.174 143.789 20.9391C143.829 20.7043 143.849 20.3814 143.849 19.973V13.0738C143.849 12.6743 143.832 12.3591 143.796 12.1281C143.76 11.8971 143.681 11.7159 143.556 11.5819C143.432 11.4491 143.245 11.3445 142.997 11.2692C142.785 11.2041 142.504 11.1352 142.157 11.0612C142.05 11.0382 141.972 10.9425 141.972 10.8327V10.4345C141.972 10.3261 142.046 10.2329 142.152 10.2074C142.581 10.1014 142.98 9.9802 143.352 9.84365C143.773 9.68795 144.171 9.51054 144.544 9.31018C144.916 9.10981 145.274 8.8954 145.617 8.66441C145.937 8.44745 146.255 8.21263 146.572 7.95738C146.612 7.9242 146.665 7.90506 146.717 7.90506H146.988C147.117 7.90506 147.221 8.0097 147.221 8.1386V19.9194C147.221 20.3278 147.24 20.6482 147.281 20.8779C147.321 21.1089 147.423 21.2914 147.588 21.4241C147.752 21.5568 148.007 21.664 148.353 21.7432C148.661 21.8146 149.07 21.8925 149.582 21.978C149.696 21.9971 149.779 22.0941 149.779 22.209V22.5497C149.779 22.6786 149.674 22.7833 149.545 22.7833H142.101C141.972 22.7833 141.867 22.6786 141.867 22.5497V22.209H141.866ZM151.023 12.0413C150.788 11.9213 150.56 11.795 150.338 11.661C150.116 11.5283 149.9 11.4032 149.692 11.2883C149.484 11.1735 149.286 11.1148 149.1 11.1148C148.905 11.1148 148.711 11.1543 148.52 11.2347C148.329 11.3151 148.145 11.4262 147.968 11.5678C147.79 11.7095 147.623 11.8792 147.468 12.0745C147.312 12.2697 147.171 12.4791 147.048 12.6998L146.94 11.5283C147.27 11.1288 147.604 10.7536 147.946 10.4026C148.288 10.0517 148.642 9.74282 149.005 9.47609C149.369 9.20936 149.743 8.99878 150.125 8.84308C150.506 8.68738 150.901 8.60953 151.31 8.60953C151.622 8.60953 151.896 8.65165 152.136 8.73588C152.375 8.82011 152.579 8.94518 152.749 9.10854C152.917 9.27317 153.046 9.46588 153.135 9.68794C153.225 9.91001 153.268 10.1627 153.268 10.4473C153.268 10.7051 153.228 10.9425 153.148 11.1594C153.068 11.3777 152.957 11.564 152.815 11.7184C152.685 11.8601 152.538 11.9749 152.376 12.0617C152.173 12.1689 151.943 12.2238 151.714 12.2187C151.477 12.2149 151.248 12.1549 151.023 12.0413Z" fill="#3959FF"/>
<path d="M158.911 22.9485C158.07 22.7494 157.313 22.3933 156.641 21.8777C155.968 21.3621 155.403 20.6883 154.943 19.8575C154.485 19.0267 154.18 18.0389 154.029 16.8954C153.935 16.1819 153.927 15.4915 154.005 14.8228C154.083 14.154 154.235 13.5248 154.461 12.9352C154.688 12.3456 154.984 11.8007 155.348 11.3004C155.712 10.8001 156.129 10.3585 156.597 9.97311C157.066 9.58897 157.586 9.27246 158.158 9.02232C158.73 8.77218 159.337 8.605 159.979 8.52076C160.799 8.41356 161.569 8.45312 162.292 8.63945C163.015 8.82578 163.666 9.14101 164.243 9.58514C164.821 10.028 165.318 10.5882 165.734 11.2621C166.108 11.8696 166.402 12.5549 166.619 13.3168C166.658 13.4534 166.565 13.5912 166.424 13.6104L156.495 14.9172L156.425 13.8784L161.976 12.8791C162.151 12.8472 162.294 12.8153 162.407 12.7821C162.519 12.7502 162.602 12.703 162.657 12.6417C162.712 12.5804 162.747 12.5013 162.766 12.4056C162.784 12.3099 162.784 12.1861 162.765 12.0368C162.715 11.659 162.615 11.3157 162.461 11.0094C162.31 10.7031 162.113 10.444 161.876 10.2335C161.638 10.0229 161.355 9.86719 161.028 9.76764C160.702 9.66682 160.335 9.64385 159.931 9.69745C159.42 9.76509 158.971 9.92844 158.586 10.1901C158.199 10.4517 157.885 10.8065 157.644 11.2544C157.403 11.7024 157.242 12.241 157.159 12.8701C157.076 13.4993 157.086 14.2089 157.191 15.0014C157.321 15.988 157.553 16.8354 157.887 17.5424C158.223 18.2507 158.632 18.8212 159.114 19.2551C159.596 19.689 160.137 19.9889 160.737 20.1561C161.337 20.3233 161.968 20.3641 162.627 20.2774C163.05 20.2212 163.462 20.1051 163.864 19.9264C164.265 19.7477 164.648 19.5142 165.008 19.2257C165.369 18.936 165.709 18.5851 166.031 18.1703C166.303 17.8219 166.552 17.4314 166.781 17.0026C166.849 16.8762 167.015 16.8418 167.129 16.9285L167.508 17.2195C167.593 17.2859 167.624 17.402 167.579 17.5003C167.408 17.8819 167.231 18.2609 167.047 18.6412C166.835 19.0764 166.604 19.4925 166.351 19.8881C166.1 20.2837 165.819 20.6589 165.512 21.0125C165.204 21.366 164.856 21.6812 164.468 21.9569C164.078 22.2325 163.643 22.4661 163.162 22.6588C162.681 22.8528 162.146 22.9881 161.557 23.0659C160.635 23.1846 159.752 23.1463 158.911 22.9485Z" fill="#3959FF"/>
</svg>
