<?xml version="1.0" encoding="utf-8"?>
<!-- Generator: Adobe Illustrator 27.5.0, SVG Export Plug-In . SVG Version: 6.00 Build 0)  -->
<svg version="1.1" xmlns="http://www.w3.org/2000/svg" xmlns:xlink="http://www.w3.org/1999/xlink" x="0px" y="0px"
	 viewBox="0 0 1684.09 1684.09" style="enable-background:new 0 0 1684.09 1684.09;" xml:space="preserve">
<style type="text/css">
	.st0{fill:#24B448;}
	.st1{fill:#2420A0;}
	.st2{fill:#ED0000;}
	.st3{fill:#504DB3;}
	.st4{fill:#4BB566;}
	.st5{fill:#F03333;}
	.st6{fill:#FFFFFF;}
	.st7{fill:none;stroke:#000000;stroke-miterlimit:10;}
	.st8{fill:#3959FF;}
	.st9{fill:#162FB1;}
	.st10{fill:#B11648;}
	.st11{fill:#FFC76C;}
	.st12{fill:#7AB14C;}
	.st13{fill:#617AFF;}
	.st14{fill:#4559C1;}
	.st15{fill:#C1456D;}
	.st16{fill:#FFD288;}
	.st17{fill:#94C16F;}
	.st18{fill:#879AFF;}
	.st19{fill:#7381D0;}
	.st20{fill:#D07390;}
	.st21{fill:#FFDDA6;}
	.st22{fill:#AED092;}
	.st23{fill:#AFBCFF;}
	.st24{fill:#A1ABDF;}
	.st25{fill:#DFA1B5;}
	.st26{fill:#FFE8C3;}
	.st27{fill:#C9DFB6;}
	.st28{fill:#5B8539;}
	.st29{fill:#BE9551;}
	.st30{fill:#851136;}
	.st31{fill:#112485;}
	.st32{fill:#2B43BE;}
	.st33{fill:#3D5926;}
	.st34{fill:#806436;}
	.st35{fill:#590B24;}
	.st36{fill:#0B1859;}
	.st37{fill:#1D2D80;}
	.st38{fill:#1E2D13;}
	.st39{fill:#40321B;}
	.st40{fill:#2D0612;}
	.st41{fill:#060C2D;}
	.st42{fill:#0E1640;}
</style>
<g id="Layer_2">
</g>
<g id="Layer_1">
	<g>
		<path d="M185.42,894.79c0-0.89,0.65-1.66,1.52-1.8c2.77-0.47,5.03-0.94,6.77-1.42c2.05-0.56,3.61-1.36,4.69-2.4
			c1.08-1.04,1.77-2.49,2.09-4.33c0.31-1.84,0.47-4.37,0.47-7.57v-54.06c0-3.13-0.14-5.6-0.41-7.41c-0.28-1.81-0.9-3.23-1.88-4.28
			c-0.97-1.04-2.44-1.86-4.38-2.45c-1.66-0.51-3.86-1.05-6.58-1.63c-0.84-0.18-1.45-0.93-1.45-1.79l0-3.12
			c0-0.85,0.59-1.58,1.41-1.78c3.34-0.8,6.42-1.65,9.23-2.54c3.2-1.01,6.22-2.16,9.08-3.44c2.85-1.29,5.64-2.73,8.35-4.33
			c2.57-1.51,5.22-3.27,7.97-5.28c0.31-0.23,0.69-0.36,1.08-0.36l2.17,0c1.01,0,1.83,0.82,1.83,1.83v90.64
			c0,3.2,0.15,5.72,0.47,7.57c0.31,1.84,1,3.29,2.09,4.33c1.08,1.04,2.62,1.84,4.64,2.4c1.72,0.47,3.95,0.95,6.72,1.42
			c0.88,0.15,1.52,0.91,1.52,1.8l0,2.67c0,1.01-0.82,1.83-1.83,1.83h-53.74c-1.01,0-1.83-0.82-1.83-1.83L185.42,894.79z
			 M252.63,894.79c0-0.89,0.65-1.66,1.52-1.8c2.77-0.47,5.03-0.94,6.77-1.42c2.05-0.56,3.61-1.36,4.7-2.4
			c1.08-1.04,1.77-2.49,2.08-4.33c0.31-1.84,0.48-4.37,0.48-7.57v-47.17c0-4.45-0.44-8.26-1.31-11.43
			c-0.87-3.17-2.16-5.74-3.86-7.72c-1.71-1.98-3.77-3.43-6.21-4.33c-2.44-0.9-5.25-1.36-8.45-1.36c-2.58,0-4.98,0.26-7.2,0.78
			c-2.23,0.52-4.28,1.31-6.16,2.35c-1.88,1.04-3.57,2.25-5.06,3.6c-1.5,1.36-2.8,2.87-3.92,4.54l-1.25-8.35
			c3.27-2.99,6.42-5.72,9.44-8.2c3.03-2.47,6.08-4.59,9.18-6.36s6.33-3.15,9.7-4.12c3.37-0.97,7.01-1.46,10.91-1.46
			c4.66,0,8.87,0.57,12.63,1.72c3.75,1.15,6.95,3.13,9.6,5.95c2.64,2.82,4.7,6.52,6.16,11.11c1.47,4.59,2.2,10.33,2.2,17.22v53.23
			c0,3.2,0.15,5.72,0.47,7.57c0.31,1.84,1.01,3.29,2.09,4.33c1.08,1.04,2.64,1.84,4.7,2.4c1.73,0.47,3.96,0.94,6.67,1.41
			c0.88,0.15,1.52,0.91,1.52,1.8v2.67c0,1.01-0.82,1.83-1.83,1.83h-53.74c-1.01,0-1.83-0.82-1.83-1.83L252.63,894.79z
			 M319.94,894.78c0-0.89,0.64-1.65,1.52-1.8c2.71-0.47,4.93-0.94,6.67-1.41c2.05-0.56,3.62-1.36,4.7-2.4
			c1.08-1.04,1.77-2.49,2.09-4.33c0.31-1.84,0.47-4.37,0.47-7.57v-47.17c0-4.45-0.44-8.26-1.31-11.43
			c-0.87-3.17-2.16-5.74-3.86-7.72c-1.71-1.98-3.77-3.43-6.21-4.33c-2.44-0.9-5.22-1.36-8.35-1.36c-2.65,0-5.08,0.26-7.31,0.78
			s-4.3,1.31-6.21,2.35c-1.91,1.04-3.63,2.25-5.17,3.6c-1.53,1.36-2.85,2.87-3.96,4.54l-1.77-8.04c3.27-2.99,6.45-5.74,9.55-8.25
			c3.09-2.5,6.24-4.66,9.44-6.47s6.52-3.22,9.97-4.23c3.45-1.01,7.15-1.51,11.12-1.51c4.59,0,8.77,0.57,12.52,1.72
			c3.75,1.15,6.95,3.13,9.6,5.95c2.64,2.82,4.69,6.52,6.16,11.11c1.46,4.59,2.19,10.33,2.19,17.22v53.23c0,3.2,0.15,5.72,0.47,7.57
			c0.31,1.84,1.01,3.29,2.09,4.33c1.08,1.04,2.64,1.84,4.7,2.4c1.74,0.47,4,0.95,6.77,1.42c0.88,0.15,1.52,0.91,1.52,1.8l0,2.67
			c0,1.01-0.82,1.83-1.83,1.83h-53.74c-1.01,0-1.83-0.82-1.83-1.83L319.94,894.78z"/>
		<path d="M421.25,900.58c-6.59-1.56-12.52-4.35-17.79-8.39c-5.27-4.04-9.7-9.32-13.3-15.83c-3.59-6.51-5.98-14.25-7.16-23.21
			c-0.74-5.59-0.8-11-0.19-16.24c0.61-5.24,1.8-10.17,3.58-14.79c1.78-4.62,4.1-8.89,6.95-12.81s6.12-7.38,9.79-10.4
			c3.67-3.01,7.75-5.49,12.23-7.45c4.48-1.96,9.24-3.27,14.27-3.93c6.42-0.84,12.46-0.53,18.12,0.93
			c5.67,1.46,10.77,3.93,15.29,7.41c4.53,3.47,8.42,7.86,11.68,13.14c2.93,4.76,5.24,10.13,6.94,16.1c0.3,1.07-0.43,2.15-1.53,2.3
			l-77.8,10.24l-0.55-8.14l43.5-7.83c1.37-0.25,2.49-0.5,3.37-0.76c0.88-0.25,1.53-0.62,1.96-1.1c0.43-0.48,0.71-1.1,0.86-1.85
			c0.14-0.75,0.14-1.72-0.01-2.89c-0.39-2.96-1.18-5.65-2.38-8.05s-2.73-4.43-4.59-6.08c-1.86-1.65-4.08-2.87-6.64-3.65
			c-2.56-0.79-5.43-0.97-8.6-0.55c-4,0.53-7.52,1.81-10.54,3.86c-3.03,2.05-5.49,4.83-7.38,8.34c-1.89,3.51-3.15,7.73-3.8,12.66
			c-0.65,4.93-0.57,10.49,0.25,16.7c1.02,7.73,2.84,14.37,5.46,19.91c2.63,5.55,5.83,10.02,9.61,13.42
			c3.78,3.4,8.02,5.75,12.72,7.06c4.7,1.31,9.64,1.63,14.81,0.95c3.31-0.44,6.54-1.35,9.69-2.75c3.14-1.4,6.14-3.23,8.96-5.49
			c2.83-2.27,5.5-5.02,8.02-8.27c2.13-2.73,4.08-5.79,5.88-9.15c0.53-0.99,1.83-1.26,2.72-0.58l2.97,2.28
			c0.67,0.52,0.91,1.43,0.56,2.2c-1.34,2.99-2.73,5.96-4.17,8.94c-1.66,3.41-3.47,6.67-5.45,9.77c-1.97,3.1-4.17,6.04-6.58,8.81
			c-2.41,2.77-5.14,5.24-8.18,7.4c-3.05,2.16-6.46,3.99-10.23,5.5c-3.77,1.52-7.96,2.58-12.58,3.19
			C434.76,902.43,427.84,902.13,421.25,900.58z"/>
		<path d="M493.15,894.79c0-0.89,0.65-1.66,1.52-1.8c2.77-0.47,5.03-0.94,6.77-1.42c2.05-0.56,3.62-1.36,4.7-2.4
			c1.08-1.04,1.77-2.49,2.09-4.33c0.31-1.84,0.47-4.37,0.47-7.57v-54.06c0-3.13-0.14-5.6-0.42-7.41c-0.27-1.81-0.9-3.23-1.87-4.28
			c-0.98-1.04-2.44-1.86-4.38-2.45c-1.66-0.51-3.86-1.05-6.59-1.63c-0.84-0.18-1.45-0.93-1.45-1.79v-3.12
			c0-0.85,0.59-1.58,1.41-1.78c3.34-0.8,6.42-1.65,9.23-2.54c3.2-1.01,6.22-2.16,9.08-3.44c2.85-1.29,5.64-2.73,8.35-4.33
			c2.56-1.51,5.22-3.27,7.97-5.28c0.31-0.23,0.69-0.35,1.08-0.35l2.17,0c1.01,0,1.83,0.82,1.83,1.83v90.64
			c0,3.2,0.15,5.72,0.47,7.57c0.31,1.84,1.01,3.29,2.09,4.33c1.08,1.04,2.62,1.84,4.64,2.4c1.71,0.47,3.95,0.95,6.72,1.42
			c0.88,0.15,1.52,0.91,1.52,1.8v2.67c0,1.01-0.82,1.83-1.83,1.83h-53.74c-1.01,0-1.83-0.82-1.83-1.83V894.79z M562.46,894.79
			c0-0.89,0.65-1.66,1.52-1.8c2.77-0.47,5.02-0.94,6.77-1.42c2.05-0.56,3.62-1.36,4.7-2.4c1.08-1.04,1.77-2.49,2.09-4.33
			c0.31-1.84,0.47-4.37,0.47-7.57v-47.17c0-4.45-0.52-8.26-1.57-11.43c-1.04-3.17-2.49-5.74-4.33-7.72
			c-1.85-1.98-4.07-3.43-6.68-4.33c-2.61-0.9-5.52-1.36-8.71-1.36c-2.58,0-5.01,0.26-7.31,0.78c-2.3,0.52-4.42,1.31-6.36,2.35
			c-1.95,1.04-3.7,2.25-5.27,3.6c-1.57,1.36-2.91,2.87-4.02,4.54l-1.1-7.35c-0.09-0.62,0.14-1.25,0.62-1.66
			c3.54-3.06,6.83-5.77,9.88-8.1c3.27-2.51,6.49-4.61,9.65-6.31c3.17-1.7,6.33-2.98,9.5-3.81c3.17-0.84,6.53-1.25,10.07-1.25
			c4.66,0,8.94,0.57,12.84,1.72s7.27,3.13,10.13,5.95c2.85,2.82,5.07,6.52,6.67,11.11c1.61,4.59,2.4,10.33,2.4,17.22v53.23
			c0,3.2,0.16,5.72,0.47,7.57c0.31,1.84,1.01,3.29,2.09,4.33c1.08,1.04,2.64,1.84,4.7,2.4c1.73,0.47,3.96,0.94,6.67,1.41
			c0.88,0.15,1.52,0.91,1.52,1.8v2.67c0,1.01-0.82,1.83-1.83,1.83h-53.74c-1.01,0-1.83-0.82-1.83-1.83V894.79z"/>
		<path d="M653.91,897.93c-6.02-2.64-11.22-6.3-15.6-10.96s-7.81-10.21-10.28-16.65c-2.47-6.44-3.71-13.48-3.71-21.14
			c0-6.05,0.77-11.78,2.3-17.17c1.53-5.39,3.71-10.37,6.53-14.93c2.82-4.55,6.16-8.64,10.02-12.26c3.86-3.62,8.11-6.7,12.73-9.24
			c4.63-2.54,9.58-4.49,14.87-5.85c5.29-1.36,10.72-2.03,16.28-2.03c1.53,0,3.11,0.04,4.75,0.1c1.64,0.07,3.31,0.19,5.01,0.36
			c1.71,0.17,3.41,0.42,5.11,0.73c1.71,0.31,3.35,0.68,4.96,1.09v-37.99c0-3.34-0.09-5.95-0.26-7.83c-0.17-1.88-0.86-3.37-2.03-4.49
			c-1.18-1.11-3.05-1.95-5.59-2.51c-2.25-0.49-5.31-1.07-9.17-1.72c-0.88-0.15-1.52-0.91-1.52-1.81v-2.78c0-0.92,0.7-1.7,1.61-1.82
			c3.97-0.49,7.64-1,11.02-1.52c3.82-0.59,7.48-1.22,10.96-1.88c3.48-0.66,6.89-1.39,10.23-2.19c3.34-0.8,6.79-1.69,10.33-2.66h0.84
			v152.17c0,2.37,0.15,4.24,0.47,5.64c0.31,1.39,0.99,2.5,2.03,3.34c1.04,0.83,2.59,1.45,4.64,1.83c1.73,0.32,3.98,0.63,6.76,0.93
			c0.93,0.1,1.64,0.89,1.64,1.82l0,2.76c0,0.89-0.63,1.64-1.51,1.8c-2.81,0.5-5.73,1.07-8.77,1.72c-3.58,0.77-7.15,1.64-10.7,2.61
			s-7.05,2-10.49,3.08c-2.59,0.81-5.08,1.63-7.49,2.46c-1.17,0.4-2.4-0.45-2.43-1.69l-0.26-13.34c-2.37,2.16-4.82,4.19-7.36,6.1
			c-2.54,1.92-5.2,3.6-7.98,5.06s-5.7,2.63-8.77,3.5c-3.06,0.87-6.26,1.31-9.6,1.31C666.46,901.9,659.93,900.57,653.91,897.93z
			 M693.26,884.84c1.7-0.38,3.35-0.9,4.95-1.57s3.13-1.46,4.6-2.4c1.46-0.94,2.82-2,4.07-3.18v-60.85c0-2.92-0.49-5.62-1.47-8.09
			c-0.97-2.47-2.4-4.55-4.28-6.26c-1.88-1.7-4.18-3.03-6.89-3.97c-2.72-0.94-5.74-1.41-9.08-1.41c-4.59,0-8.87,0.83-12.84,2.5
			c-3.96,1.67-7.39,4.25-10.28,7.72c-2.88,3.48-5.17,7.86-6.83,13.15c-1.67,5.29-2.5,11.55-2.5,18.78c0,6.89,0.94,13.17,2.82,18.84
			c1.87,5.67,4.42,10.52,7.62,14.56c3.2,4.04,6.94,7.17,11.22,9.39c4.28,2.23,8.82,3.34,13.62,3.34
			C689.8,885.41,691.55,885.22,693.26,884.84z"/>
		<path d="M756.97,894.79c0-0.89,0.65-1.66,1.52-1.8c2.77-0.47,5.03-0.94,6.77-1.42c2.05-0.56,3.61-1.36,4.69-2.4
			c1.08-1.04,1.77-2.49,2.09-4.33c0.31-1.84,0.47-4.37,0.47-7.57v-54.06c0-3.13-0.14-5.6-0.41-7.41c-0.28-1.81-0.9-3.23-1.88-4.28
			c-0.97-1.04-2.44-1.86-4.38-2.45c-1.66-0.51-3.86-1.05-6.58-1.63c-0.84-0.18-1.45-0.93-1.45-1.79v-3.12
			c0-0.85,0.59-1.58,1.41-1.78c3.34-0.8,6.42-1.65,9.23-2.54c3.2-1.01,6.22-2.16,9.08-3.44c2.85-1.29,5.64-2.73,8.35-4.33
			c2.57-1.51,5.22-3.27,7.97-5.28c0.31-0.23,0.69-0.36,1.08-0.36l2.17,0c1.01,0,1.83,0.82,1.83,1.83v90.64
			c0,3.2,0.15,5.72,0.47,7.57c0.31,1.84,1,3.29,2.09,4.33c1.08,1.04,2.62,1.84,4.64,2.4c1.72,0.47,3.95,0.95,6.72,1.42
			c0.88,0.15,1.52,0.91,1.52,1.8v2.67c0,1.01-0.82,1.83-1.83,1.83H758.8c-1.01,0-1.83-0.82-1.83-1.83V894.79z M778.47,754.27
			c-1.95-0.8-3.65-1.91-5.11-3.34s-2.59-3.12-3.39-5.06c-0.8-1.95-1.2-4.07-1.2-6.36c0-2.3,0.4-4.42,1.2-6.37
			c0.8-1.95,1.93-3.63,3.39-5.06s3.17-2.56,5.11-3.39c1.95-0.83,4.07-1.25,6.36-1.25c2.23,0,4.32,0.42,6.26,1.25
			c1.95,0.84,3.65,1.97,5.11,3.39c1.46,1.43,2.61,3.11,3.45,5.06c0.83,1.95,1.25,4.07,1.25,6.37c0,2.3-0.42,4.42-1.25,6.36
			c-0.84,1.95-1.99,3.64-3.45,5.06c-1.46,1.43-3.17,2.54-5.11,3.34s-4.04,1.2-6.26,1.2C782.54,755.47,780.42,755.07,778.47,754.27z"
			/>
		<path d="M852.73,901.53c-2.68-0.25-5.27-0.59-7.78-1.04c-2.5-0.46-4.92-0.98-7.26-1.57c-1.95-0.5-3.8-1.05-5.53-1.67
			c-0.62-0.22-1.06-0.76-1.17-1.41l-4.72-26.99c-0.17-1,0.5-1.95,1.5-2.12l5.21-0.89c0.88-0.15,1.74,0.37,2.04,1.21
			c1.26,3.57,2.64,6.77,4.14,9.59c1.7,3.2,3.67,5.92,5.9,8.14c2.22,2.23,4.8,3.92,7.72,5.06c2.92,1.15,6.29,1.72,10.12,1.72
			c2.78,0,5.41-0.31,7.88-0.94c2.46-0.63,4.62-1.6,6.47-2.92c1.85-1.32,3.31-2.95,4.38-4.91c1.08-1.94,1.62-4.24,1.62-6.89
			c0-2.16-0.38-4.09-1.15-5.79c-0.76-1.7-1.89-3.3-3.39-4.8c-1.5-1.5-3.36-2.89-5.59-4.18c-2.22-1.29-4.77-2.56-7.62-3.81
			l-10.12-4.49c-3.83-1.67-7.42-3.51-10.76-5.53c-3.34-2.02-6.22-4.35-8.66-6.99c-2.44-2.64-4.35-5.64-5.74-8.98
			c-1.4-3.34-2.09-7.24-2.09-11.69c0-5.22,1.23-9.83,3.7-13.83c2.47-4,5.76-7.39,9.87-10.18c4.1-2.78,8.83-4.87,14.2-6.26
			c5.35-1.39,10.92-2.09,16.69-2.09c4.04,0,8.11,0.3,12.21,0.89c3.68,0.53,7.35,1.16,11.03,1.88c0.77,0.15,1.36,0.78,1.46,1.55
			l3.23,23.54c0.14,0.99-0.54,1.9-1.53,2.06l-5.19,0.82c-0.89,0.14-1.77-0.39-2.03-1.25c-0.89-2.93-1.94-5.54-3.16-7.83
			c-1.43-2.68-3.11-4.91-5.06-6.68c-1.95-1.78-4.2-3.1-6.73-3.97c-2.54-0.87-5.41-1.3-8.61-1.3c-2.65,0-5.08,0.33-7.31,0.99
			c-2.23,0.66-4.14,1.6-5.74,2.82c-1.6,1.22-2.85,2.7-3.75,4.43c-0.9,1.74-1.36,3.76-1.36,6.05c0,2.02,0.29,3.85,0.89,5.48
			c0.59,1.63,1.51,3.13,2.76,4.49c1.25,1.36,2.82,2.63,4.7,3.81c1.87,1.18,4.07,2.33,6.57,3.44l9.92,4.38
			c4.94,2.16,9.34,4.24,13.2,6.26c3.86,2.02,7.13,4.28,9.81,6.78c2.68,2.51,4.71,5.39,6.1,8.66c1.39,3.27,2.09,7.2,2.09,11.79
			c0,5.64-1.2,10.65-3.6,15.03c-2.4,4.38-5.66,8.09-9.76,11.11c-4.1,3.03-8.89,5.34-14.35,6.94c-5.46,1.6-11.29,2.4-17.48,2.4
			C858.13,901.9,855.4,901.78,852.73,901.53z"/>
		<path d="M970.81,901.74c-1.74-0.1-3.48-0.26-5.22-0.47c-1.74-0.21-3.43-0.47-5.06-0.78c-0.82-0.16-1.62-0.33-2.4-0.51
			c-1.15-0.27-2.25,0.6-2.25,1.78v31.66c0,3.2,0.15,5.71,0.47,7.52c0.31,1.81,1.11,3.23,2.4,4.28c1.29,1.04,3.29,1.88,6,2.51
			c2.42,0.56,5.63,1.17,9.64,1.84c0.88,0.15,1.54,0.91,1.54,1.81v2.66c0,1.01-0.82,1.83-1.83,1.83h-58.33
			c-1.01,0-1.83-0.82-1.83-1.83v-2.67c0-0.89,0.65-1.65,1.52-1.8c2.77-0.47,5.03-0.95,6.78-1.42c2.05-0.56,3.61-1.36,4.69-2.4
			c1.08-1.04,1.78-2.49,2.09-4.33c0.31-1.84,0.48-4.37,0.48-7.57V823.1c0-3.06-0.13-5.49-0.37-7.31c-0.25-1.81-0.85-3.25-1.83-4.33
			c-0.98-1.08-2.45-1.91-4.44-2.5c-1.69-0.5-3.87-1.04-6.54-1.62c-0.84-0.18-1.44-0.93-1.44-1.79v-3.03c0-0.85,0.59-1.58,1.41-1.78
			c3.29-0.8,6.33-1.65,9.13-2.53c3.2-1.01,6.23-2.16,9.08-3.44c2.85-1.29,5.66-2.73,8.4-4.33c2.59-1.51,5.23-3.27,7.92-5.27
			c0.31-0.23,0.7-0.36,1.09-0.36h2.16c1.01,0,1.83,0.82,1.83,1.83v13.12c0,1.54,1.78,2.39,2.98,1.42c1.47-1.19,3-2.35,4.58-3.48
			c2.68-1.91,5.57-3.61,8.66-5.11c3.1-1.5,6.33-2.68,9.71-3.55c3.37-0.87,6.9-1.31,10.59-1.31c6.89,0,13.17,1.25,18.84,3.76
			c5.67,2.5,10.52,6.02,14.56,10.54c4.04,4.52,7.17,9.98,9.4,16.38c2.22,6.4,3.34,13.53,3.34,21.39c0,6.05-0.78,11.81-2.35,17.27
			c-1.57,5.46-3.77,10.49-6.63,15.08c-2.86,4.59-6.23,8.71-10.13,12.37c-3.9,3.65-8.19,6.77-12.89,9.34
			c-4.69,2.58-9.65,4.56-14.87,5.95c-5.21,1.39-10.54,2.09-15.97,2.09C974.18,901.9,972.54,901.85,970.81,901.74z M989.9,890.05
			c3.97-1.57,7.44-4.05,10.44-7.46c2.98-3.41,5.37-7.84,7.15-13.31c1.77-5.46,2.66-12.09,2.66-19.88c0-6.33-0.75-12.23-2.24-17.69
			c-1.5-5.46-3.69-10.21-6.57-14.25c-2.89-4.03-6.46-7.18-10.7-9.44c-4.24-2.26-9.12-3.39-14.61-3.39c-1.81,0-3.65,0.16-5.53,0.47
			c-1.88,0.31-3.67,0.78-5.37,1.41c-1.71,0.63-3.36,1.39-4.96,2.3c-1.35,0.76-2.57,1.62-3.67,2.58c-0.39,0.34-0.61,0.85-0.61,1.37
			l0,58.57c0,3.55,0.54,6.65,1.61,9.29c1.08,2.64,2.56,4.84,4.44,6.57c1.88,1.74,4.16,3.05,6.83,3.92c2.68,0.87,5.55,1.31,8.61,1.31
			C981.76,892.4,985.94,891.62,989.9,890.05z"/>
		<path d="M1046.56,894.79c0-0.89,0.65-1.65,1.52-1.8c2.77-0.47,5-0.94,6.72-1.42c2.01-0.56,3.57-1.36,4.64-2.4
			c1.08-1.04,1.77-2.49,2.09-4.33c0.31-1.84,0.47-4.37,0.47-7.57V752.34c0-3.34-0.07-5.95-0.21-7.83c-0.14-1.88-0.7-3.38-1.67-4.49
			c-0.98-1.11-2.52-1.98-4.64-2.61c-1.85-0.55-4.34-1.17-7.49-1.88c-0.84-0.19-1.43-0.93-1.43-1.79v-2.89
			c0-0.91,0.68-1.68,1.58-1.81c3.38-0.49,6.58-0.98,9.59-1.5c3.47-0.59,6.81-1.22,10.02-1.88c3.2-0.66,6.42-1.39,9.65-2.19
			c3.23-0.8,6.63-1.69,10.17-2.66h0.84v156.45c0,3.2,0.15,5.72,0.47,7.57c0.31,1.84,1.01,3.29,2.09,4.33
			c1.08,1.04,2.64,1.84,4.7,2.4c1.74,0.47,4,0.95,6.77,1.42c0.88,0.15,1.52,0.91,1.52,1.8v2.67c0,1.01-0.82,1.83-1.83,1.83h-53.74
			c-1.01,0-1.83-0.82-1.83-1.83V894.79z M1115.86,894.79c0-0.89,0.65-1.65,1.52-1.8c2.77-0.47,5-0.94,6.72-1.42
			c2.01-0.56,3.58-1.36,4.7-2.4c1.11-1.04,1.81-2.49,2.09-4.33c0.27-1.84,0.41-4.37,0.41-7.57v-47.17c0-4.45-0.51-8.26-1.51-11.43
			c-1.01-3.17-2.46-5.74-4.33-7.72c-1.88-1.98-4.11-3.43-6.68-4.33c-2.58-0.9-5.46-1.36-8.67-1.36c-2.57,0-5.01,0.26-7.3,0.78
			s-4.44,1.31-6.42,2.35c-1.98,1.04-3.75,2.25-5.32,3.6c-0.52,0.45-1.01,0.92-1.48,1.4c-1.06,1.09-2.91,0.47-3.11-1.03l-0.44-3.19
			c-0.08-0.61,0.15-1.23,0.62-1.64c3.53-3.07,6.82-5.77,9.84-8.11c3.23-2.51,6.43-4.61,9.6-6.31c3.17-1.7,6.35-2.98,9.55-3.81
			c3.2-0.84,6.57-1.25,10.13-1.25c4.59,0,8.83,0.57,12.73,1.72c3.9,1.15,7.27,3.13,10.13,5.95c2.85,2.82,5.09,6.52,6.73,11.11
			c1.63,4.59,2.46,10.33,2.46,17.22v53.23c0,3.2,0.13,5.72,0.41,7.57c0.28,1.84,0.98,3.29,2.09,4.33c1.11,1.04,2.68,1.84,4.7,2.4
			c1.71,0.47,3.95,0.95,6.72,1.42c0.88,0.15,1.52,0.91,1.52,1.8v2.67c0,1.01-0.82,1.83-1.83,1.83h-53.74
			c-1.01,0-1.83-0.82-1.83-1.83V894.79z"/>
		<path d="M1219.9,900.58c-6.59-1.56-12.52-4.35-17.79-8.39c-5.27-4.04-9.7-9.32-13.3-15.83c-3.59-6.51-5.98-14.25-7.16-23.21
			c-0.74-5.59-0.8-11-0.19-16.24c0.61-5.24,1.8-10.17,3.58-14.79c1.78-4.62,4.1-8.89,6.95-12.81c2.85-3.92,6.12-7.38,9.79-10.4
			c3.67-3.01,7.75-5.49,12.23-7.45c4.48-1.96,9.24-3.27,14.27-3.93c6.42-0.84,12.46-0.53,18.12,0.93
			c5.67,1.46,10.77,3.93,15.29,7.41c4.53,3.47,8.42,7.86,11.68,13.14c2.93,4.76,5.24,10.13,6.94,16.1c0.3,1.07-0.43,2.15-1.53,2.3
			l-77.8,10.24l-0.55-8.14l43.5-7.83c1.37-0.25,2.49-0.5,3.37-0.76c0.88-0.25,1.53-0.62,1.96-1.1c0.43-0.48,0.71-1.1,0.86-1.85
			c0.14-0.75,0.14-1.72-0.01-2.89c-0.39-2.96-1.18-5.65-2.38-8.05c-1.19-2.4-2.73-4.43-4.59-6.08c-1.86-1.65-4.08-2.87-6.64-3.65
			c-2.56-0.79-5.43-0.97-8.6-0.55c-4,0.53-7.52,1.81-10.54,3.86c-3.03,2.05-5.49,4.83-7.38,8.34c-1.89,3.51-3.15,7.73-3.8,12.66
			c-0.65,4.93-0.57,10.49,0.25,16.7c1.02,7.73,2.84,14.37,5.46,19.91c2.63,5.55,5.83,10.02,9.61,13.42
			c3.78,3.4,8.02,5.75,12.72,7.06c4.7,1.31,9.64,1.63,14.81,0.95c3.31-0.44,6.54-1.35,9.69-2.75c3.14-1.4,6.14-3.23,8.96-5.49
			c2.83-2.27,5.5-5.02,8.02-8.27c2.13-2.73,4.08-5.79,5.88-9.15c0.53-0.99,1.83-1.26,2.72-0.58l2.97,2.28
			c0.67,0.52,0.91,1.43,0.56,2.2c-1.34,2.99-2.73,5.96-4.17,8.94c-1.66,3.41-3.47,6.67-5.45,9.77c-1.97,3.1-4.17,6.04-6.58,8.81
			c-2.41,2.77-5.14,5.24-8.18,7.4c-3.05,2.16-6.46,3.99-10.23,5.5c-3.77,1.52-7.96,2.58-12.58,3.19
			C1233.41,902.43,1226.49,902.13,1219.9,900.58z"/>
		<path d="M1297.03,894.79c0-0.89,0.65-1.66,1.52-1.8c2.77-0.47,5.03-0.94,6.77-1.42c2.05-0.56,3.61-1.36,4.69-2.4
			c1.08-1.04,1.77-2.49,2.09-4.33c0.31-1.84,0.47-4.37,0.47-7.57v-54.06c0-3.13-0.14-5.6-0.42-7.41c-0.28-1.81-0.9-3.23-1.88-4.28
			c-0.97-1.04-2.44-1.86-4.38-2.45c-1.66-0.51-3.86-1.05-6.58-1.63c-0.84-0.18-1.45-0.93-1.45-1.79v-3.12
			c0-0.85,0.58-1.58,1.41-1.78c3.36-0.83,6.49-1.78,9.4-2.85c3.3-1.22,6.42-2.61,9.34-4.18c2.92-1.57,5.72-3.25,8.41-5.06
			c2.51-1.7,5-3.54,7.48-5.54c0.32-0.26,0.73-0.41,1.14-0.41h2.12c1.01,0,1.83,0.82,1.83,1.83v92.31c0,3.2,0.15,5.71,0.47,7.51
			c0.31,1.81,1.11,3.24,2.4,4.28c1.29,1.04,3.29,1.88,6,2.5c2.41,0.56,5.62,1.17,9.63,1.84c0.89,0.15,1.54,0.91,1.54,1.81v2.67
			c0,1.01-0.82,1.83-1.83,1.83h-58.33c-1.01,0-1.83-0.82-1.83-1.83V894.79z M1368.78,815.12c-1.84-0.94-3.63-1.93-5.37-2.98
			c-1.74-1.04-3.43-2.02-5.06-2.92c-1.63-0.9-3.18-1.36-4.64-1.36c-1.53,0-3.05,0.31-4.54,0.94c-1.5,0.63-2.94,1.5-4.33,2.61
			c-1.39,1.11-2.7,2.44-3.92,3.97c-1.22,1.53-2.32,3.17-3.29,4.9l-0.84-9.18c2.58-3.13,5.2-6.07,7.88-8.82
			c2.68-2.75,5.45-5.17,8.3-7.26c2.85-2.09,5.78-3.74,8.77-4.96c2.99-1.22,6.08-1.83,9.29-1.83c2.44,0,4.59,0.33,6.47,0.99
			c1.87,0.66,3.47,1.64,4.8,2.92c1.32,1.29,2.33,2.8,3.03,4.54c0.7,1.74,1.04,3.72,1.04,5.95c0,2.02-0.31,3.88-0.94,5.58
			c-0.63,1.71-1.5,3.17-2.61,4.38c-1.02,1.11-2.17,2.01-3.44,2.69c-1.59,0.84-3.39,1.27-5.19,1.23
			C1372.34,816.48,1370.54,816.01,1368.78,815.12z"/>
		<path d="M1430.58,900.61c-6.59-1.56-12.52-4.35-17.79-8.39c-5.27-4.04-9.7-9.32-13.3-15.83c-3.59-6.51-5.98-14.25-7.16-23.21
			c-0.74-5.59-0.8-11-0.19-16.24c0.61-5.24,1.8-10.17,3.57-14.79c1.78-4.62,4.1-8.89,6.95-12.81c2.85-3.92,6.12-7.38,9.79-10.4
			c3.67-3.01,7.75-5.49,12.23-7.45c4.48-1.96,9.24-3.27,14.27-3.93c6.42-0.84,12.46-0.53,18.12,0.93
			c5.67,1.46,10.77,3.93,15.29,7.41c4.53,3.47,8.42,7.86,11.68,13.14c2.93,4.76,5.24,10.13,6.94,16.1c0.3,1.07-0.43,2.15-1.53,2.3
			l-77.8,10.24l-0.55-8.14l43.5-7.83c1.37-0.25,2.49-0.5,3.37-0.76c0.88-0.25,1.53-0.62,1.96-1.1c0.43-0.48,0.71-1.1,0.86-1.85
			c0.14-0.75,0.14-1.72-0.01-2.89c-0.39-2.96-1.18-5.65-2.38-8.05c-1.19-2.4-2.73-4.43-4.59-6.08c-1.86-1.65-4.08-2.87-6.64-3.65
			c-2.56-0.79-5.43-0.97-8.6-0.55c-4,0.53-7.52,1.81-10.54,3.86c-3.03,2.05-5.49,4.83-7.38,8.34c-1.89,3.51-3.15,7.73-3.8,12.66
			c-0.65,4.93-0.57,10.49,0.25,16.7c1.02,7.73,2.84,14.37,5.46,19.91c2.63,5.55,5.83,10.02,9.61,13.42
			c3.78,3.4,8.02,5.75,12.72,7.06c4.7,1.31,9.64,1.63,14.81,0.95c3.31-0.44,6.54-1.35,9.69-2.75c3.14-1.4,6.14-3.23,8.96-5.49
			c2.83-2.27,5.5-5.02,8.02-8.27c2.13-2.73,4.08-5.79,5.88-9.15c0.53-0.99,1.83-1.26,2.72-0.58l2.97,2.28
			c0.67,0.52,0.91,1.43,0.56,2.2c-1.34,2.99-2.73,5.96-4.17,8.94c-1.66,3.41-3.47,6.67-5.45,9.77c-1.97,3.1-4.17,6.04-6.58,8.81
			c-2.41,2.77-5.14,5.24-8.18,7.4c-3.05,2.16-6.46,3.99-10.23,5.5c-3.77,1.52-7.96,2.58-12.58,3.19
			C1444.09,902.46,1437.17,902.16,1430.58,900.61z"/>
	</g>
</g>
</svg>
