<svg width="24" height="24" viewBox="0 0 24 24" fill="none" xmlns="http://www.w3.org/2000/svg">
<path d="M12 0C10.4241 0 8.86371 0.310389 7.4078 0.913446C5.95189 1.5165 4.62902 2.40042 3.51472 3.51472C1.26428 5.76516 0 8.8174 0 12C0 15.1826 1.26428 18.2348 3.51472 20.4853C4.62902 21.5996 5.95189 22.4835 7.4078 23.0866C8.86371 23.6896 10.4241 24 12 24C15.1826 24 18.2348 22.7357 20.4853 20.4853C22.7357 18.2348 24 15.1826 24 12C24 10.4241 23.6896 8.86371 23.0866 7.4078C22.4835 5.95189 21.5996 4.62902 20.4853 3.51472C19.371 2.40042 18.0481 1.5165 16.5922 0.913446C15.1363 0.310389 13.5759 0 12 0ZM6.084 19.536C6.6 18.456 9.744 17.4 12 17.4C14.256 17.4 17.4 18.456 17.916 19.536C16.2353 20.8752 14.149 21.6031 12 21.6C9.768 21.6 7.716 20.832 6.084 19.536ZM19.632 17.796C17.916 15.708 13.752 15 12 15C10.248 15 6.084 15.708 4.368 17.796C3.09142 16.1335 2.3996 14.096 2.4 12C2.4 6.708 6.708 2.4 12 2.4C17.292 2.4 21.6 6.708 21.6 12C21.6 14.184 20.856 16.2 19.632 17.796ZM12 4.8C9.672 4.8 7.8 6.672 7.8 9C7.8 11.328 9.672 13.2 12 13.2C14.328 13.2 16.2 11.328 16.2 9C16.2 6.672 14.328 4.8 12 4.8ZM12 10.8C11.5226 10.8 11.0648 10.6104 10.7272 10.2728C10.3896 9.93523 10.2 9.47739 10.2 9C10.2 8.52261 10.3896 8.06477 10.7272 7.72721C11.0648 7.38964 11.5226 7.2 12 7.2C12.4774 7.2 12.9352 7.38964 13.2728 7.72721C13.6104 8.06477 13.8 8.52261 13.8 9C13.8 9.47739 13.6104 9.93523 13.2728 10.2728C12.9352 10.6104 12.4774 10.8 12 10.8Z" fill="#333333"/>
</svg>
