<svg width="35" height="35" viewBox="0 0 35 35" fill="none" xmlns="http://www.w3.org/2000/svg">
<circle cx="17.5" cy="17.5" r="17.5" fill="#3959FF"/>
<path d="M22.3636 15.2857C24.1745 15.2857 25.6255 13.6586 25.6255 11.6429C25.6255 9.62714 24.1745 8 22.3636 8C20.5527 8 19.0909 9.62714 19.0909 11.6429C19.0909 13.6586 20.5527 15.2857 22.3636 15.2857ZM13.6364 15.2857C15.4473 15.2857 16.8982 13.6586 16.8982 11.6429C16.8982 9.62714 15.4473 8 13.6364 8C11.8255 8 10.3636 9.62714 10.3636 11.6429C10.3636 13.6586 11.8255 15.2857 13.6364 15.2857ZM13.6364 17.7143C11.0945 17.7143 6 19.135 6 21.9643V23.7857C6 24.4536 6.49091 25 7.09091 25H20.1818C20.7818 25 21.2727 24.4536 21.2727 23.7857V21.9643C21.2727 19.135 16.1782 17.7143 13.6364 17.7143ZM22.3636 17.7143C22.0473 17.7143 21.6873 17.7386 21.3055 17.775C21.3273 17.7871 21.3382 17.8114 21.3491 17.8236C22.5927 18.8314 23.4545 20.1793 23.4545 21.9643V23.7857C23.4545 24.2107 23.3782 24.6236 23.2582 25H28.9091C29.5091 25 30 24.4536 30 23.7857V21.9643C30 19.135 24.9055 17.7143 22.3636 17.7143Z" fill="white"/>
</svg>
