<svg width="35" height="35" viewBox="0 0 35 35" fill="none" xmlns="http://www.w3.org/2000/svg">
<circle cx="17.5" cy="17.5" r="17.5" fill="#3959FF"/>
<path d="M21.0436 22.6648C21.0436 22.8295 20.9782 22.9875 20.8617 23.104C20.7452 23.2204 20.5872 23.2859 20.4225 23.2859H11.7267C11.5901 23.2859 11.4597 23.4101 11.3479 23.4909L9.24225 25.1493V15.2113C9.24225 15.0465 9.30769 14.8886 9.42417 14.7721C9.54066 14.6556 9.69864 14.5901 9.86337 14.5901H12.2609V13.3479H9.86337C9.36918 13.3479 8.89522 13.5442 8.54577 13.8937C8.19632 14.2431 8 14.7171 8 15.2113V26.3915C8.00092 26.5069 8.03396 26.6197 8.09539 26.7173C8.15683 26.815 8.24424 26.8936 8.34783 26.9443C8.44763 26.9897 8.55767 27.0079 8.66676 26.9969C8.77585 26.986 8.88012 26.9464 8.96895 26.8822L12.1677 24.5281H20.5157C20.7511 24.5351 20.9854 24.4937 21.2041 24.4064C21.4229 24.3191 21.6214 24.1878 21.7873 24.0207C21.9533 23.8536 22.0831 23.6542 22.1689 23.4348C22.2547 23.2155 22.2945 22.9809 22.2859 22.7455V22.0436H21.0436V22.6648Z" fill="white"/>
<path d="M26.0123 9H15.4532C14.959 9 14.4851 9.19632 14.1356 9.54577C13.7862 9.89522 13.5898 10.3692 13.5898 10.8634V18.3169C13.5898 18.8111 13.7862 19.285 14.1356 19.6345C14.4851 19.9839 14.959 20.1802 15.4532 20.1802H23.8694L26.8384 22.4846C26.9267 22.5499 27.0307 22.5906 27.1398 22.6026C27.2489 22.6146 27.3592 22.5974 27.4595 22.5529C27.5652 22.5026 27.6546 22.4234 27.7172 22.3245C27.7798 22.2256 27.8133 22.111 27.8136 21.9939V10.8634C27.8139 10.3798 27.6261 9.91497 27.29 9.56725C26.9538 9.21953 26.4957 9.01612 26.0123 9ZM26.6335 20.7641L24.4595 19.0684C24.3511 18.9843 24.2179 18.9384 24.0806 18.938H15.4532C15.2885 18.938 15.1305 18.8725 15.014 18.7561C14.8975 18.6396 14.8321 18.4816 14.8321 18.3169V10.8634C14.8321 10.6986 14.8975 10.5407 15.014 10.4242C15.1305 10.3077 15.2885 10.2422 15.4532 10.2422H26.0123C26.1784 10.2573 26.3332 10.3326 26.4476 10.4538C26.562 10.5751 26.6281 10.734 26.6335 10.9006V20.7641Z" fill="white"/>
</svg>
