<svg width="35" height="35" viewBox="0 0 35 35" fill="none" xmlns="http://www.w3.org/2000/svg">
<circle cx="17.5" cy="17.5" r="17.5" fill="#3959FF"/>
<path d="M18 22.625C22.0395 22.625 25.3125 19.352 25.3125 15.3125C25.3125 11.273 22.0395 8 18 8C13.9605 8 10.6875 11.273 10.6875 15.3125C10.6875 19.352 13.9605 22.625 18 22.625ZM17.2195 11.4242V10.8336C17.2195 10.5102 17.4797 10.25 17.8031 10.25H18.1934C18.5168 10.25 18.777 10.5102 18.777 10.8336V11.4312C19.3219 11.4594 19.8492 11.6457 20.2887 11.9727C20.4855 12.1168 20.5066 12.4051 20.3309 12.5738L19.7578 13.1188C19.6242 13.2488 19.4238 13.2523 19.2656 13.1539C19.0758 13.0344 18.8648 12.9746 18.6398 12.9746H17.2723C16.9559 12.9746 16.6992 13.2629 16.6992 13.618C16.6992 13.9062 16.875 14.1629 17.1246 14.2367L19.3148 14.8941C20.2184 15.1648 20.8512 16.0332 20.8512 17.007C20.8512 18.2023 19.923 19.1691 18.7734 19.2008V19.7914C18.7734 20.1148 18.5133 20.375 18.1898 20.375H17.7996C17.4762 20.375 17.216 20.1148 17.216 19.7914V19.1937C16.6711 19.1656 16.1437 18.9793 15.7043 18.6523C15.5074 18.5082 15.4863 18.2199 15.6621 18.0512L16.2352 17.5062C16.3688 17.3762 16.5691 17.3727 16.7273 17.4711C16.9172 17.5906 17.1281 17.6504 17.3531 17.6504H18.7207C19.0371 17.6504 19.2937 17.3621 19.2937 17.007C19.2937 16.7188 19.118 16.4621 18.8684 16.3883L16.6781 15.7309C15.7746 15.4602 15.1418 14.5918 15.1418 13.618C15.1453 12.4227 16.0699 11.4559 17.2195 11.4242ZM25.875 20.375H24.7324C24.0434 21.2891 23.1645 22.052 22.166 22.625H24.409C24.5953 22.625 24.7465 22.7516 24.7465 22.9062V23.4688C24.7465 23.6234 24.5953 23.75 24.409 23.75H11.5875C11.4012 23.75 11.25 23.6234 11.25 23.4688V22.9062C11.25 22.7516 11.4012 22.625 11.5875 22.625H13.8305C12.832 22.052 11.9566 21.2891 11.2641 20.375H10.125C9.50273 20.375 9 20.8777 9 21.5V24.875C9 25.4973 9.50273 26 10.125 26H25.875C26.4973 26 27 25.4973 27 24.875V21.5C27 20.8777 26.4973 20.375 25.875 20.375Z" fill="white"/>
</svg>
