<svg width="35" height="35" viewBox="0 0 35 35" fill="none" xmlns="http://www.w3.org/2000/svg">
<circle cx="17.5" cy="17.5" r="17.5" fill="#3959FF"/>
<path d="M18.5061 10.1097C19.4856 9.40262 20.6219 9.0491 21.9051 9.0491C22.6104 9.0491 23.3842 9.23568 24.2266 9.62848C25.0691 10.0115 25.7351 10.4632 26.2249 10.9836C27.2339 12.2406 27.6551 13.7038 27.5081 15.3732C27.3514 17.0426 26.8029 18.3486 25.8527 19.2717L18.4179 26.725C18.2318 26.9116 17.9967 27 17.7224 27C17.4481 27 17.2229 26.9116 17.0367 26.725C16.9463 26.6356 16.8752 26.5283 16.828 26.41C16.7808 26.2918 16.7585 26.165 16.7625 26.0376C16.7625 25.7627 16.8506 25.527 17.0367 25.3404L21.5329 20.8331C21.7778 20.617 21.7778 20.3912 21.5329 20.1457C21.288 19.9002 21.0627 19.9002 20.8472 20.1457L16.3511 24.653C16.2604 24.7446 16.1518 24.8163 16.0321 24.8636C15.9124 24.9109 15.7842 24.9329 15.6556 24.928C15.3813 24.928 15.156 24.8396 14.9699 24.653C14.8794 24.5636 14.8084 24.4563 14.7612 24.338C14.714 24.2198 14.6916 24.093 14.6956 23.9656C14.6956 23.6907 14.7838 23.455 14.9699 23.2684L19.466 18.761C19.7305 18.5155 19.7305 18.27 19.466 18.0246C19.2407 17.7791 19.0252 17.7791 18.7803 18.0246L14.2842 22.581C14.1925 22.6712 14.0837 22.7419 13.9643 22.7892C13.8448 22.8364 13.7171 22.8591 13.5887 22.856C13.3144 22.856 13.0794 22.7676 12.8736 22.581C12.6777 22.3944 12.5798 22.1686 12.5798 21.8936C12.5798 21.6187 12.6875 21.3732 12.903 21.1571L17.409 16.6399C17.6539 16.3944 17.6539 16.1686 17.409 15.9525C17.1641 15.7365 16.929 15.7365 16.7135 15.9525L12.1684 20.4795C11.9529 20.6759 11.7276 20.784 11.4827 20.784C11.2084 20.784 10.9733 20.6858 10.797 20.4795C10.6109 20.2831 10.5129 20.0475 10.5129 19.7725C10.5129 19.4975 10.6109 19.2717 10.797 19.0851C13.7944 16.0606 15.6458 14.234 16.3511 13.5565L19.8383 17.0131C20.2203 17.3764 20.6611 17.563 21.1998 17.563C21.8855 17.563 22.4243 17.2881 22.8259 16.7381C23.1002 16.3355 23.1981 15.8936 23.1197 15.4026C23.0414 14.9116 22.8357 14.4992 22.5026 14.1555L18.5061 10.1097ZM20.5239 16.3257L16.3511 12.1326L9.41583 19.0851C8.59301 18.2504 8.12283 16.9738 8.01507 15.2357C7.90732 13.5074 8.37751 12.0049 9.41583 10.748C10.5815 9.5892 11.9725 9 13.5887 9C15.2148 9 16.5959 9.5892 17.7224 10.748L21.9051 14.9411C22.0912 15.1277 22.1794 15.3535 22.1794 15.6285C22.1794 15.9034 22.0912 16.1391 21.9051 16.3257C21.719 16.5025 21.4937 16.6007 21.1998 16.6007C20.9353 16.6007 20.7101 16.5025 20.5239 16.3257Z" fill="white"/>
</svg>
