<svg width="35" height="35" viewBox="0 0 35 35" fill="none" xmlns="http://www.w3.org/2000/svg">
<circle cx="17.5" cy="17.5" r="17.5" fill="#3959FF"/>
<path d="M25.7651 12.3908C25.6712 12.2714 25.5515 12.175 25.4151 12.109C25.2786 12.0431 25.129 12.0092 24.9776 12.01H14.0128V11.509C14.014 11.0728 14.1568 10.649 14.4195 10.3017C14.6821 9.95453 15.0503 9.70294 15.4681 9.58517C15.7365 9.84552 16.0921 9.99562 16.4649 10.006H17.4617C17.8583 10.006 18.2386 9.84766 18.519 9.56579C18.7994 9.28392 18.9569 8.90163 18.9569 8.50301C18.9569 8.10438 18.7994 7.72209 18.519 7.44022C18.2386 7.15835 17.8583 7 17.4617 7H16.4649C16.2402 7.00031 16.0185 7.05187 15.8165 7.15081C15.6145 7.24974 15.4374 7.39346 15.2987 7.57114C14.3799 7.73772 13.5484 8.22312 12.9491 8.94273C12.3498 9.66234 12.0207 10.5705 12.0192 11.509V12.01H11.0224C10.871 12.0092 10.7214 12.0431 10.5849 12.109C10.4485 12.175 10.3288 12.2714 10.2349 12.3908C10.1351 12.5098 10.0642 12.6505 10.0278 12.8018C9.99149 12.9531 9.99073 13.1109 10.0256 13.2625L10.6436 15.7575C10.7912 16.3322 11.1047 16.8501 11.5446 17.246C11.9845 17.6418 12.5312 17.8979 13.1157 17.982L13.8932 24.996H13.016C12.7516 24.996 12.4981 25.1016 12.3112 25.2895C12.1242 25.4774 12.0192 25.7322 12.0192 25.998C12.0192 26.2637 12.1242 26.5186 12.3112 26.7065C12.4981 26.8944 12.7516 27 13.016 27H22.984C23.2484 27 23.5019 26.8944 23.6888 26.7065C23.8758 26.5186 23.9808 26.2637 23.9808 25.998C23.9808 25.7322 23.8758 25.4774 23.6888 25.2895C23.5019 25.1016 23.2484 24.996 22.984 24.996H22.1068L22.8843 17.982C23.4647 17.8917 24.0058 17.6317 24.4401 17.2343C24.8744 16.837 25.1827 16.3198 25.3265 15.7475L25.9744 13.2625C26.0093 13.1109 26.0085 12.9531 25.9722 12.8018C25.9358 12.6505 25.8649 12.5098 25.7651 12.3908ZM20.0933 25.0361H15.9067L15.1292 18.022H20.8708L20.0933 25.0361ZM23.3927 15.2665C23.3381 15.4889 23.2094 15.6857 23.0281 15.8242C22.8467 15.9628 22.6236 16.0347 22.3959 16.0281H13.5742C13.3465 16.0347 13.1234 15.9628 12.942 15.8242C12.7607 15.6857 12.632 15.4889 12.5774 15.2665L12.2983 14.014H23.7017L23.3927 15.2665Z" fill="white"/>
</svg>
